<?xml version="1.0" encoding="utf-8"?>
<!-- Generator: Adobe Illustrator 15.0.0, SVG Export Plug-In . SVG Version: 6.00 Build 0)  -->
<!DOCTYPE svg PUBLIC "-//W3C//DTD SVG 1.1//EN" "http://www.w3.org/Graphics/SVG/1.1/DTD/svg11.dtd">
<svg version="1.1" id="Layer_1" xmlns="http://www.w3.org/2000/svg" xmlns:xlink="http://www.w3.org/1999/xlink" x="0px" y="0px"
	 width="460.5px" height="94px" viewBox="0 0 460.5 94" enable-background="new 0 0 460.5 94" xml:space="preserve">
<g>
	<path fill="#231F20" stroke="#231F20" stroke-width="0.5" d="M46.156,38.913v3.125h0.085c0.171-0.293,0.398-0.638,0.684-1.034
		c0.284-0.397,0.662-0.777,1.132-1.145c0.47-0.367,1.04-0.683,1.708-0.946c0.669-0.264,1.474-0.396,2.414-0.396
		c0.996,0,1.829,0.109,2.499,0.33c0.668,0.22,1.224,0.499,1.666,0.836c0.441,0.338,0.797,0.712,1.068,1.123
		c0.271,0.412,0.519,0.822,0.747,1.233c0.428-0.793,0.904-1.416,1.431-1.872c0.527-0.454,1.061-0.807,1.602-1.056
		c0.541-0.249,1.053-0.411,1.538-0.485c0.484-0.073,0.883-0.109,1.196-0.109c1.623,0,2.876,0.25,3.759,0.748
		c0.882,0.5,1.523,1.094,1.921,1.783c0.399,0.689,0.633,1.416,0.705,2.179s0.107,1.408,0.107,1.936V57.18h2.818v0.616h-10.55V57.18
		h2.521V43.534c0-1.232-0.222-2.179-0.663-2.839c-0.442-0.66-1.174-0.991-2.199-0.991c-0.314,0-0.698,0.088-1.153,0.264
		c-0.456,0.176-0.896,0.44-1.324,0.792c-0.427,0.353-0.79,0.815-1.089,1.387s-0.449,1.254-0.449,2.047V57.18h2.52v0.616H50.556
		V57.18h2.562V43.181c0-1.291-0.271-2.193-0.811-2.706c-0.542-0.513-1.14-0.771-1.794-0.771c-1.14,0-2.135,0.514-2.99,1.541
		c-0.229,0.294-0.427,0.595-0.598,0.903s-0.307,0.66-0.406,1.057c-0.1,0.396-0.17,0.851-0.214,1.365
		c-0.042,0.513-0.064,1.137-0.064,1.871v10.74h2.521v0.616h-10.55V57.18h2.819V39.528h-2.819v-0.615H46.156z"/>
	<path fill="#231F20" stroke="#231F20" stroke-width="0.5" d="M94.102,58.191c-0.757,0.118-1.461,0.177-2.116,0.177
		c-1.452,0-2.527-0.265-3.225-0.792c-0.698-0.528-1.132-1.262-1.302-2.201h-0.086c-0.456,1.174-1.082,1.966-1.879,2.377
		c-0.798,0.41-1.951,0.616-3.46,0.616c-0.684,0-1.381-0.073-2.093-0.221c-0.712-0.146-1.367-0.381-1.965-0.704
		c-0.598-0.322-1.083-0.77-1.453-1.342c-0.37-0.572-0.555-1.27-0.555-2.091c0-0.852,0.164-1.563,0.491-2.135
		c0.327-0.572,0.754-1.058,1.282-1.453c0.526-0.396,1.125-0.719,1.794-0.969c0.668-0.249,1.359-0.49,2.072-0.726
		c1.167-0.352,2.114-0.653,2.84-0.903c0.727-0.249,1.289-0.512,1.688-0.792c0.398-0.277,0.676-0.594,0.833-0.946
		c0.156-0.353,0.235-0.807,0.235-1.365v-2.685c0-0.793-0.185-1.511-0.556-2.158c-0.37-0.644-1.068-0.967-2.092-0.967
		c-0.656,0-1.225,0.153-1.709,0.462c-0.484,0.307-0.727,0.873-0.727,1.694c0,0.088,0.014,0.242,0.043,0.462
		c0.028,0.221,0.057,0.462,0.085,0.727s0.057,0.514,0.086,0.749c0.028,0.235,0.042,0.396,0.042,0.484c0,0.44-0.1,0.785-0.299,1.034
		c-0.199,0.25-0.434,0.434-0.705,0.55c-0.271,0.117-0.555,0.184-0.854,0.198c-0.299,0.015-0.548,0.023-0.747,0.023
		c-0.285,0-0.577-0.023-0.875-0.066c-0.299-0.045-0.562-0.147-0.79-0.308c-0.229-0.161-0.421-0.389-0.577-0.682
		c-0.157-0.293-0.235-0.69-0.235-1.189c0-0.764,0.207-1.445,0.62-2.046c0.413-0.601,0.961-1.102,1.644-1.497
		c0.684-0.396,1.459-0.697,2.328-0.903c0.868-0.204,1.772-0.307,2.712-0.307c1.082,0,2.099,0.088,3.054,0.264
		c0.954,0.176,1.779,0.499,2.477,0.967c0.697,0.47,1.252,1.108,1.666,1.915c0.413,0.808,0.62,1.827,0.62,3.06v10.917
		c0,0.558,0.079,1.05,0.235,1.475c0.157,0.426,0.548,0.639,1.174,0.639c0.37,0,0.676-0.073,0.918-0.221
		c0.241-0.146,0.476-0.352,0.705-0.615l0.384,0.396C95.433,57.707,94.854,58.074,94.102,58.191z M87.117,46.879
		c-0.058,0.177-0.164,0.346-0.32,0.507c-0.157,0.161-0.435,0.345-0.833,0.551c-0.541,0.264-1.083,0.521-1.623,0.77
		c-0.542,0.25-1.025,0.565-1.452,0.947s-0.776,0.851-1.046,1.407c-0.271,0.559-0.406,1.277-0.406,2.158
		c0,0.352,0.021,0.763,0.064,1.231c0.042,0.47,0.156,0.925,0.342,1.365c0.185,0.44,0.462,0.813,0.833,1.123
		c0.369,0.308,0.882,0.462,1.537,0.462c0.37,0,0.733-0.089,1.09-0.265c0.355-0.176,0.676-0.447,0.96-0.814
		c0.285-0.366,0.513-0.852,0.683-1.453c0.171-0.601,0.257-1.327,0.257-2.179v-5.811H87.117z"/>
	<path fill="#231F20" stroke="#231F20" stroke-width="0.5" d="M105.869,38.913v3.125h0.084c0.171-0.293,0.399-0.638,0.684-1.034
		c0.284-0.397,0.662-0.777,1.132-1.145c0.47-0.367,1.039-0.683,1.708-0.946c0.669-0.264,1.474-0.396,2.414-0.396
		c0.996,0,1.829,0.109,2.499,0.33c0.668,0.22,1.223,0.499,1.666,0.836c0.44,0.338,0.797,0.712,1.068,1.123
		c0.27,0.412,0.519,0.822,0.747,1.233c0.427-0.793,0.903-1.416,1.431-1.872c0.526-0.454,1.06-0.807,1.602-1.056
		c0.54-0.249,1.054-0.411,1.537-0.485c0.484-0.073,0.883-0.109,1.196-0.109c1.624,0,2.876,0.25,3.759,0.748
		c0.883,0.5,1.523,1.094,1.922,1.783c0.399,0.689,0.634,1.416,0.705,2.179c0.07,0.763,0.106,1.408,0.106,1.936V57.18h2.819v0.616
		h-10.549V57.18h2.52V43.534c0-1.232-0.221-2.179-0.663-2.839c-0.441-0.66-1.174-0.991-2.199-0.991
		c-0.314,0-0.698,0.088-1.153,0.264c-0.456,0.176-0.897,0.44-1.325,0.792c-0.426,0.353-0.79,0.815-1.088,1.387
		s-0.449,1.254-0.449,2.047V57.18h2.52v0.616h-10.293V57.18h2.563V43.181c0-1.291-0.271-2.193-0.812-2.706s-1.139-0.771-1.794-0.771
		c-1.139,0-2.135,0.514-2.989,1.541c-0.229,0.294-0.428,0.595-0.598,0.903c-0.171,0.308-0.307,0.66-0.407,1.057
		c-0.1,0.396-0.17,0.851-0.213,1.365c-0.042,0.513-0.064,1.137-0.064,1.871v10.74h2.521v0.616h-10.55V57.18h2.819V39.528h-2.819
		v-0.615H105.869z"/>
	<path fill="#231F20" stroke="#231F20" stroke-width="0.5" d="M143.626,38.913v3.125h0.085c0.171-0.293,0.399-0.638,0.684-1.034
		c0.284-0.397,0.662-0.777,1.132-1.145c0.47-0.367,1.038-0.683,1.708-0.946c0.668-0.264,1.473-0.396,2.414-0.396
		c0.996,0,1.829,0.109,2.499,0.33c0.669,0.22,1.223,0.499,1.666,0.836c0.44,0.338,0.797,0.712,1.068,1.123
		c0.27,0.412,0.519,0.822,0.747,1.233c0.427-0.793,0.903-1.416,1.431-1.872c0.526-0.454,1.06-0.807,1.602-1.056
		c0.541-0.249,1.054-0.411,1.538-0.485c0.483-0.073,0.883-0.109,1.196-0.109c1.624,0,2.876,0.25,3.759,0.748
		c0.883,0.5,1.523,1.094,1.922,1.783c0.399,0.689,0.634,1.416,0.705,2.179c0.071,0.763,0.106,1.408,0.106,1.936V57.18h2.82v0.616
		h-10.55V57.18h2.521V43.534c0-1.232-0.221-2.179-0.662-2.839s-1.174-0.991-2.2-0.991c-0.314,0-0.698,0.088-1.154,0.264
		c-0.456,0.176-0.897,0.44-1.324,0.792c-0.427,0.353-0.789,0.815-1.088,1.387c-0.299,0.572-0.449,1.254-0.449,2.047V57.18h2.521
		v0.616h-10.293V57.18h2.563V43.181c0-1.291-0.271-2.193-0.812-2.706c-0.54-0.513-1.138-0.771-1.794-0.771
		c-1.138,0-2.136,0.514-2.989,1.541c-0.228,0.294-0.427,0.595-0.598,0.903c-0.17,0.308-0.306,0.66-0.406,1.057
		c-0.1,0.396-0.171,0.851-0.213,1.365c-0.042,0.513-0.064,1.137-0.064,1.871v10.74h2.521v0.616h-10.55V57.18h2.819V39.528h-2.819
		v-0.615H143.626z"/>
	<path fill="#231F20" stroke="#231F20" stroke-width="0.5" d="M187.641,39.11c1.267,0.543,2.371,1.269,3.31,2.179
		c0.94,0.91,1.673,1.973,2.2,3.191c0.526,1.219,0.791,2.502,0.791,3.852c0,1.379-0.264,2.678-0.791,3.896
		c-0.527,1.218-1.26,2.282-2.2,3.191c-0.939,0.909-2.043,1.629-3.31,2.157c-1.268,0.527-2.642,0.792-4.122,0.792
		c-1.481,0-2.855-0.265-4.122-0.792c-1.267-0.528-2.37-1.248-3.311-2.157c-0.939-0.909-1.672-1.974-2.199-3.191
		c-0.528-1.218-0.79-2.517-0.79-3.896c0-1.35,0.262-2.633,0.79-3.852c0.527-1.218,1.26-2.281,2.199-3.191
		c0.94-0.91,2.043-1.636,3.311-2.179c1.267-0.542,2.641-0.814,4.122-0.814C184.999,38.296,186.373,38.568,187.641,39.11z
		 M186.124,56.98c0.626-0.541,1.09-1.254,1.389-2.134c0.299-0.88,0.484-1.893,0.555-3.038c0.071-1.144,0.108-2.303,0.108-3.477
		s-0.037-2.326-0.108-3.456s-0.255-2.135-0.555-3.015c-0.299-0.881-0.762-1.592-1.389-2.135c-0.626-0.542-1.495-0.813-2.605-0.813
		c-1.111,0-1.979,0.271-2.606,0.813c-0.626,0.543-1.088,1.254-1.388,2.135c-0.299,0.88-0.484,1.886-0.556,3.015
		s-0.106,2.282-0.106,3.456s0.035,2.333,0.106,3.477c0.071,1.146,0.257,2.158,0.556,3.038c0.299,0.88,0.762,1.593,1.388,2.134
		c0.626,0.544,1.495,0.815,2.606,0.815C184.629,57.796,185.498,57.524,186.124,56.98z"/>
	<path fill="#231F20" stroke="#231F20" stroke-width="0.5" d="M200.796,33.674c0.44,0.117,0.875,0.176,1.303,0.176
		c0.427,0,0.861-0.059,1.302-0.176s0.876-0.264,1.303-0.44v5.679h4.998v0.615h-4.998v14.746c0,0.44,0.029,0.852,0.086,1.233
		c0.057,0.383,0.164,0.727,0.32,1.034c0.157,0.309,0.385,0.551,0.684,0.726c0.299,0.177,0.69,0.266,1.175,0.266
		c0.54,0,1.003-0.117,1.388-0.353c0.384-0.234,0.719-0.535,1.003-0.903c0.285-0.366,0.52-0.784,0.705-1.253
		c0.185-0.47,0.334-0.925,0.449-1.364l0.64,0.131c-0.17,0.998-0.463,1.798-0.875,2.398c-0.413,0.603-0.883,1.064-1.41,1.388
		c-0.527,0.322-1.088,0.535-1.687,0.639c-0.598,0.102-1.169,0.153-1.709,0.153c-1.481,0-2.627-0.177-3.438-0.529
		c-0.811-0.351-1.409-0.791-1.794-1.319c-0.384-0.529-0.605-1.101-0.662-1.717c-0.058-0.617-0.084-1.188-0.084-1.717V39.528h-2.862
		v-0.615h2.862v-5.679C199.92,33.41,200.354,33.557,200.796,33.674z"/>
	<path fill="#231F20" stroke="#231F20" stroke-width="0.5" d="M215.168,57.18V26.675h-2.819v-0.616h8.031v17.08h0.084
		c0.114-0.264,0.306-0.652,0.577-1.167c0.27-0.513,0.675-1.026,1.217-1.541c0.541-0.514,1.232-0.96,2.072-1.343
		c0.841-0.381,1.901-0.572,3.183-0.572c1.879,0,3.338,0.557,4.378,1.673c1.038,1.116,1.558,2.641,1.558,4.578V57.18h2.861v0.616
		h-10.72V57.18h2.649V43.27c0-1.232-0.243-2.134-0.727-2.707c-0.485-0.573-1.14-0.859-1.965-0.859c-0.684,0-1.338,0.17-1.965,0.507
		c-0.626,0.337-1.174,0.844-1.644,1.518c-0.471,0.676-0.848,1.513-1.132,2.51c-0.286,0.998-0.427,2.172-0.427,3.521v9.42h2.69v0.616
		h-10.722V57.18H215.168z"/>
	<path fill="#231F20" stroke="#231F20" stroke-width="0.5" d="M250.451,39.528v-0.615h7.943v3.256h0.084
		c0.884-2.581,2.564-3.873,5.041-3.873c1.65,0,3.06,0.329,4.228,0.99c1.168,0.66,2.129,1.49,2.884,2.487
		c0.754,0.998,1.31,2.084,1.665,3.257c0.357,1.174,0.536,2.275,0.536,3.301c0,1.321-0.229,2.582-0.683,3.786
		c-0.457,1.203-1.09,2.267-1.902,3.19c-0.812,0.925-1.786,1.666-2.926,2.224c-1.14,0.556-2.408,0.836-3.802,0.836
		c-1.309,0-2.363-0.366-3.162-1.102c-0.795-0.732-1.394-1.613-1.792-2.641h-0.087V69.46h2.906v0.617h-10.934V69.46h2.817V39.528
		H250.451z M258.585,51.392c0.072,1.101,0.279,2.129,0.62,3.08c0.342,0.955,0.849,1.747,1.516,2.378
		c0.67,0.631,1.604,0.946,2.799,0.946c0.796,0,1.432-0.22,1.901-0.66s0.826-1.071,1.067-1.893s0.397-1.812,0.47-2.972
		c0.072-1.159,0.106-2.457,0.106-3.895c0-1.762-0.062-3.25-0.191-4.469c-0.128-1.217-0.351-2.193-0.664-2.927
		c-0.312-0.732-0.71-1.261-1.195-1.584c-0.482-0.323-1.096-0.484-1.835-0.484c-1.056,0-1.895,0.308-2.521,0.924
		c-0.626,0.615-1.096,1.394-1.409,2.332c-0.313,0.94-0.52,1.967-0.62,3.082c-0.1,1.116-0.15,2.158-0.15,3.126
		C258.479,49.285,258.517,50.291,258.585,51.392z"/>
	<path fill="#231F20" stroke="#231F20" stroke-width="0.5" d="M283.894,38.913v3.697h0.085c0.514-1.114,1.202-2.075,2.072-2.883
		c0.867-0.806,2.014-1.21,3.438-1.21c1.195,0,2.163,0.33,2.903,0.99c0.741,0.66,1.11,1.578,1.11,2.751
		c0,0.881-0.207,1.57-0.62,2.069c-0.412,0.5-1.074,0.749-1.985,0.749c-0.654,0-1.252-0.14-1.794-0.417
		c-0.541-0.28-0.811-0.8-0.811-1.564c0-0.087,0.014-0.241,0.042-0.462c0.028-0.22,0.064-0.455,0.108-0.704
		c0.04-0.249,0.076-0.478,0.106-0.683c0.028-0.204,0.042-0.321,0.042-0.352c-0.029-0.234-0.072-0.417-0.129-0.55
		c-0.058-0.131-0.148-0.249-0.276-0.352c-0.129-0.103-0.321-0.153-0.576-0.153c-0.285,0-0.642,0.139-1.067,0.417
		c-0.43,0.28-0.827,0.683-1.196,1.211c-0.373,0.528-0.692,1.166-0.961,1.916c-0.272,0.748-0.407,1.591-0.407,2.529v11.27h3.375
		v0.616h-11.362V57.18h2.777V39.528h-2.777v-0.615H283.894z"/>
	<path fill="#231F20" stroke="#231F20" stroke-width="0.5" d="M308.986,39.11c1.268,0.543,2.37,1.269,3.311,2.179
		c0.939,0.91,1.672,1.973,2.2,3.191c0.525,1.219,0.79,2.502,0.79,3.852c0,1.379-0.265,2.678-0.79,3.896
		c-0.528,1.218-1.261,2.282-2.2,3.191c-0.94,0.909-2.043,1.629-3.311,2.157c-1.268,0.527-2.642,0.792-4.121,0.792
		c-1.48,0-2.855-0.265-4.122-0.792c-1.269-0.528-2.371-1.248-3.311-2.157s-1.672-1.974-2.2-3.191
		c-0.527-1.218-0.79-2.517-0.79-3.896c0-1.35,0.263-2.633,0.79-3.852c0.528-1.218,1.261-2.281,2.2-3.191s2.042-1.636,3.311-2.179
		c1.267-0.542,2.642-0.814,4.122-0.814C306.345,38.296,307.719,38.568,308.986,39.11z M307.471,56.98
		c0.626-0.541,1.09-1.254,1.387-2.134c0.301-0.88,0.485-1.893,0.556-3.038c0.072-1.144,0.108-2.303,0.108-3.477
		s-0.036-2.326-0.108-3.456c-0.07-1.129-0.255-2.134-0.556-3.015c-0.297-0.881-0.761-1.592-1.387-2.135
		c-0.626-0.542-1.496-0.813-2.605-0.813c-1.111,0-1.98,0.271-2.606,0.813c-0.627,0.543-1.088,1.254-1.388,2.135
		c-0.298,0.88-0.485,1.886-0.555,3.015c-0.072,1.129-0.106,2.282-0.106,3.456s0.034,2.333,0.106,3.477
		c0.069,1.146,0.257,2.158,0.555,3.038c0.3,0.88,0.761,1.593,1.388,2.134c0.626,0.544,1.495,0.815,2.606,0.815
		C305.975,57.796,306.845,57.524,307.471,56.98z"/>
	<path fill="#231F20" stroke="#231F20" stroke-width="0.5" d="M318.745,39.528v-0.615h8.073v20.732c0,1.524-0.12,2.942-0.363,4.248
		c-0.241,1.306-0.64,2.443-1.196,3.41c-0.554,0.969-1.287,1.725-2.198,2.268c-0.911,0.542-2.035,0.814-3.375,0.814
		c-1.537,0-2.797-0.33-3.78-0.99c-0.981-0.661-1.474-1.578-1.474-2.751c0-0.939,0.243-1.585,0.727-1.938
		c0.484-0.352,1.026-0.528,1.624-0.528c0.711,0,1.267,0.17,1.666,0.508c0.397,0.336,0.598,0.813,0.598,1.43
		c0,0.322-0.059,0.696-0.172,1.123c-0.113,0.425-0.171,0.799-0.171,1.122c0,0.293,0.058,0.601,0.171,0.924s0.514,0.485,1.196,0.485
		c0.514,0,0.896-0.162,1.153-0.485s0.384-1.056,0.384-2.2V39.528H318.745z M322.078,27.247c0.598-0.615,1.309-0.924,2.136-0.924
		c0.825,0,1.537,0.309,2.135,0.924c0.599,0.617,0.897,1.351,0.897,2.202c0,0.852-0.299,1.584-0.897,2.201
		c-0.598,0.616-1.31,0.924-2.135,0.924c-0.827,0-1.538-0.308-2.136-0.924c-0.598-0.617-0.896-1.349-0.896-2.201
		C321.182,28.597,321.48,27.864,322.078,27.247z"/>
	<path fill="#231F20" stroke="#231F20" stroke-width="0.5" d="M337.796,48.728c0,1.058,0.043,2.122,0.128,3.191
		c0.087,1.072,0.313,2.042,0.686,2.905c0.369,0.866,0.908,1.577,1.621,2.136c0.712,0.558,1.71,0.836,2.99,0.836
		c1.138,0,2.1-0.22,2.884-0.66c0.783-0.44,1.423-0.947,1.921-1.519c0.498-0.572,0.869-1.138,1.111-1.695
		c0.241-0.557,0.378-0.968,0.406-1.232l0.598,0.22c-0.143,0.559-0.385,1.152-0.727,1.784c-0.341,0.631-0.811,1.217-1.409,1.76
		c-0.598,0.543-1.339,0.997-2.222,1.365c-0.883,0.366-1.95,0.55-3.203,0.55c-1.48,0-2.861-0.228-4.144-0.682
		c-1.28-0.455-2.398-1.116-3.354-1.982c-0.953-0.865-1.702-1.921-2.241-3.169c-0.541-1.247-0.812-2.662-0.812-4.246
		c0-1.263,0.257-2.495,0.769-3.699c0.513-1.203,1.217-2.267,2.115-3.191c0.896-0.924,1.949-1.674,3.159-2.245
		c1.21-0.572,2.513-0.858,3.909-0.858c0.995,0,1.993,0.161,2.989,0.484c0.996,0.323,1.894,0.822,2.692,1.497
		c0.796,0.675,1.451,1.547,1.963,2.618c0.514,1.072,0.771,2.355,0.771,3.853h-12.602V48.728z M344.63,43.181
		c0-0.322-0.015-0.718-0.043-1.188c-0.028-0.469-0.128-0.938-0.298-1.408c-0.172-0.469-0.448-0.866-0.833-1.188
		c-0.386-0.323-0.918-0.484-1.603-0.484c-0.969,0-1.716,0.235-2.242,0.704c-0.526,0.47-0.918,1.064-1.175,1.783
		c-0.256,0.719-0.419,1.496-0.491,2.332c-0.071,0.837-0.121,1.636-0.149,2.399h6.834V43.181z"/>
	<path fill="#231F20" stroke="#231F20" stroke-width="0.5" d="M353.855,44.943c0.457-1.173,1.133-2.252,2.028-3.236
		c0.897-0.983,1.995-1.797,3.29-2.443c1.296-0.645,2.797-0.967,4.507-0.967c1.082,0,2.063,0.117,2.946,0.352
		s1.646,0.565,2.285,0.991c0.642,0.425,1.139,0.939,1.496,1.539c0.354,0.603,0.533,1.271,0.533,2.003
		c0,0.969-0.242,1.652-0.727,2.048c-0.485,0.396-1.168,0.593-2.051,0.593c-0.654,0-1.259-0.123-1.813-0.374
		c-0.557-0.249-0.833-0.77-0.833-1.562c0-0.116,0.035-0.321,0.106-0.616c0.069-0.293,0.142-0.6,0.213-0.924
		c0.069-0.322,0.142-0.631,0.214-0.924c0.07-0.292,0.106-0.498,0.106-0.617c0-0.586-0.251-1.048-0.746-1.386
		c-0.5-0.337-1.12-0.506-1.859-0.506c-1.024,0-1.836,0.249-2.434,0.749c-0.598,0.499-1.062,1.166-1.39,2.002
		c-0.326,0.836-0.541,1.805-0.64,2.906c-0.1,1.1-0.149,2.267-0.149,3.5c0,1.145,0.041,2.288,0.128,3.434
		c0.086,1.144,0.313,2.187,0.684,3.124c0.369,0.939,0.911,1.702,1.622,2.289c0.713,0.588,1.682,0.881,2.905,0.881
		c1.167,0,2.15-0.212,2.946-0.639c0.798-0.425,1.438-0.924,1.923-1.495c0.484-0.573,0.848-1.146,1.09-1.718
		c0.24-0.572,0.391-0.99,0.447-1.255l0.598,0.22c-0.142,0.528-0.362,1.107-0.661,1.739c-0.3,0.631-0.732,1.219-1.303,1.761
		c-0.569,0.542-1.303,1.006-2.2,1.387c-0.896,0.38-2.028,0.572-3.395,0.572c-0.372,0-0.892-0.038-1.56-0.109
		c-0.669-0.074-1.396-0.236-2.179-0.484c-0.782-0.25-1.574-0.596-2.371-1.036c-0.797-0.438-1.53-1.034-2.2-1.781
		c-0.668-0.748-1.209-1.667-1.621-2.751c-0.414-1.087-0.62-2.378-0.62-3.874C353.173,47.247,353.4,46.117,353.855,44.943z"/>
	<path fill="#231F20" stroke="#231F20" stroke-width="0.5" d="M377.626,33.674c0.438,0.117,0.874,0.176,1.303,0.176
		c0.426,0,0.861-0.059,1.303-0.176s0.873-0.264,1.303-0.44v5.679h4.997v0.615h-4.997v14.746c0,0.44,0.027,0.852,0.084,1.233
		c0.057,0.381,0.163,0.727,0.319,1.034c0.156,0.309,0.385,0.551,0.686,0.726c0.298,0.177,0.689,0.266,1.175,0.266
		c0.539,0,1.002-0.117,1.387-0.354c0.385-0.233,0.72-0.534,1.005-0.902c0.285-0.366,0.52-0.784,0.705-1.254
		c0.185-0.469,0.335-0.924,0.447-1.363l0.642,0.131c-0.172,0.998-0.463,1.798-0.876,2.398c-0.414,0.603-0.884,1.064-1.409,1.388
		c-0.528,0.322-1.09,0.535-1.688,0.639c-0.599,0.102-1.168,0.153-1.71,0.153c-1.48,0-2.627-0.177-3.438-0.529
		c-0.812-0.351-1.409-0.791-1.795-1.319c-0.382-0.529-0.604-1.101-0.66-1.717c-0.06-0.617-0.085-1.188-0.085-1.718V39.528h-2.861
		v-0.615h2.861v-5.679C376.749,33.41,377.183,33.557,377.626,33.674z"/>
	<path fill="#231F20" stroke="#231F20" stroke-width="0.5" d="M390.075,51.413c0.342,0.822,0.69,1.614,1.046,2.377
		c0.356,0.764,0.776,1.438,1.262,2.025c0.482,0.586,1.067,1.064,1.75,1.431c0.683,0.367,1.523,0.55,2.521,0.55
		c0.257,0,0.599-0.015,1.024-0.044c0.429-0.029,0.849-0.154,1.262-0.374c0.411-0.221,0.767-0.558,1.067-1.013
		c0.298-0.455,0.448-1.107,0.448-1.958c0-0.266-0.037-0.535-0.106-0.815c-0.072-0.278-0.223-0.564-0.448-0.858
		c-0.229-0.293-0.563-0.578-1.005-0.858c-0.441-0.278-1.046-0.564-1.816-0.857l-3.46-1.321c-0.397-0.146-0.825-0.345-1.28-0.595
		c-0.456-0.248-0.877-0.578-1.259-0.989c-0.385-0.411-0.706-0.902-0.961-1.476c-0.257-0.572-0.385-1.254-0.385-2.046
		c0-0.851,0.17-1.658,0.513-2.421c0.342-0.762,0.817-1.43,1.432-2.003c0.61-0.572,1.351-1.026,2.22-1.364
		c0.867-0.337,1.815-0.505,2.84-0.505c0.542,0,1.046,0.058,1.516,0.176c0.47,0.117,0.898,0.242,1.283,0.374
		c0.382,0.132,0.725,0.257,1.024,0.375c0.298,0.117,0.535,0.176,0.704,0.176c0.313,0,0.514-0.059,0.598-0.176
		c0.085-0.118,0.157-0.25,0.213-0.396h0.599v5.371h-0.555c-0.284-0.705-0.576-1.38-0.876-2.026c-0.298-0.645-0.654-1.21-1.068-1.694
		c-0.413-0.485-0.917-0.865-1.516-1.145c-0.598-0.278-1.339-0.417-2.22-0.417c-0.941,0-1.804,0.257-2.586,0.77
		c-0.783,0.515-1.174,1.271-1.174,2.267c0,0.206,0.028,0.44,0.085,0.705c0.057,0.264,0.185,0.535,0.385,0.814
		c0.2,0.279,0.513,0.558,0.938,0.836c0.43,0.28,0.997,0.551,1.71,0.814l3.63,1.277c1.539,0.558,2.705,1.292,3.503,2.2
		c0.798,0.91,1.195,2.069,1.195,3.478c0,0.969-0.206,1.841-0.619,2.62c-0.414,0.776-0.954,1.438-1.622,1.98
		c-0.67,0.542-1.446,0.962-2.33,1.254c-0.882,0.293-1.793,0.44-2.733,0.44c-0.51,0-1.067-0.06-1.665-0.177
		c-0.599-0.118-1.175-0.257-1.729-0.417c-0.557-0.161-1.062-0.302-1.516-0.419c-0.457-0.117-0.813-0.177-1.067-0.177
		c-0.229,0-0.394,0.045-0.492,0.133c-0.1,0.089-0.193,0.25-0.278,0.484h-0.598v-6.383H390.075z"/>
</g>
</svg>
