<?xml version="1.0" encoding="utf-8"?>
<!-- Generator: Adobe Illustrator 15.0.0, SVG Export Plug-In . SVG Version: 6.00 Build 0)  -->
<!DOCTYPE svg PUBLIC "-//W3C//DTD SVG 1.1//EN" "http://www.w3.org/Graphics/SVG/1.1/DTD/svg11.dtd">
<svg version="1.1" id="Layer_1" xmlns="http://www.w3.org/2000/svg" xmlns:xlink="http://www.w3.org/1999/xlink" x="0px" y="0px"
	 width="360.227px" height="78.571px" viewBox="0 -23.974 360.227 78.571" enable-background="new 0 -23.974 360.227 78.571"
	 xml:space="preserve">
<g>
	<path fill="#231F20" stroke="#231F20" stroke-width="0.75" d="M65.26,9.049v2.309h0.062c0.126-0.217,0.295-0.472,0.505-0.764
		c0.21-0.293,0.489-0.575,0.835-0.846c0.348-0.27,0.769-0.504,1.262-0.699c0.494-0.195,1.089-0.292,1.783-0.292
		c0.735,0,1.351,0.081,1.845,0.244c0.494,0.163,0.904,0.37,1.23,0.618c0.326,0.25,0.589,0.525,0.789,0.829
		c0.2,0.304,0.383,0.607,0.552,0.911c0.316-0.586,0.667-1.046,1.057-1.382c0.389-0.336,0.783-0.597,1.183-0.781
		c0.399-0.185,0.778-0.304,1.136-0.358c0.357-0.054,0.652-0.081,0.883-0.081c1.2,0,2.125,0.185,2.777,0.553
		c0.652,0.369,1.125,0.808,1.42,1.317c0.294,0.509,0.468,1.045,0.52,1.609c0.053,0.564,0.08,1.041,0.08,1.432v8.875h2.082v0.456
		h-7.793v-0.456h1.862V12.464c0-0.91-0.164-1.61-0.489-2.098c-0.327-0.488-0.867-0.731-1.625-0.731
		c-0.231,0-0.516,0.065-0.852,0.195c-0.337,0.13-0.663,0.325-0.979,0.585c-0.315,0.26-0.583,0.602-0.804,1.024
		s-0.332,0.927-0.332,1.512v9.591h1.862v0.456h-7.604v-0.456h1.894V12.204c0-0.954-0.201-1.62-0.6-2
		c-0.4-0.378-0.842-0.568-1.325-0.568c-0.841,0-1.578,0.379-2.208,1.138c-0.169,0.217-0.316,0.439-0.442,0.667
		s-0.226,0.488-0.3,0.781c-0.074,0.292-0.126,0.628-0.159,1.008c-0.031,0.379-0.047,0.84-0.047,1.381v7.934h1.862v0.456h-7.793
		v-0.456h2.083V9.504h-2.083V9.049H65.26z"/>
	<path fill="#231F20" stroke="#231F20" stroke-width="0.75" d="M100.673,23.291c-0.557,0.086-1.077,0.13-1.562,0.13
		c-1.073,0-1.867-0.195-2.382-0.585c-0.515-0.39-0.836-0.932-0.961-1.625h-0.063c-0.337,0.867-0.799,1.453-1.388,1.755
		c-0.589,0.303-1.441,0.456-2.556,0.456c-0.504,0-1.02-0.055-1.545-0.163c-0.526-0.109-1.009-0.281-1.451-0.52
		c-0.442-0.238-0.8-0.57-1.073-0.992c-0.273-0.423-0.411-0.938-0.411-1.544c0-0.629,0.121-1.154,0.363-1.577
		c0.241-0.423,0.557-0.78,0.946-1.073c0.389-0.293,0.831-0.531,1.325-0.715c0.494-0.184,1.005-0.363,1.531-0.537
		c0.862-0.26,1.562-0.481,2.099-0.667c0.536-0.184,0.951-0.379,1.246-0.585c0.294-0.206,0.499-0.439,0.615-0.699
		c0.116-0.261,0.174-0.596,0.174-1.008v-1.983c0-0.586-0.137-1.116-0.411-1.594c-0.273-0.477-0.789-0.715-1.545-0.715
		c-0.484,0-0.905,0.114-1.262,0.342c-0.357,0.228-0.536,0.645-0.536,1.251c0,0.065,0.01,0.179,0.031,0.341
		c0.021,0.163,0.042,0.341,0.063,0.537c0.021,0.195,0.042,0.379,0.063,0.552c0.021,0.174,0.032,0.292,0.032,0.357
		c0,0.325-0.074,0.581-0.221,0.764c-0.147,0.185-0.32,0.32-0.521,0.407s-0.41,0.136-0.63,0.146
		c-0.221,0.011-0.405,0.017-0.552,0.017c-0.211,0-0.426-0.017-0.647-0.049c-0.221-0.032-0.416-0.108-0.584-0.227
		c-0.168-0.12-0.311-0.287-0.425-0.504c-0.116-0.216-0.174-0.509-0.174-0.877c0-0.563,0.152-1.068,0.458-1.512
		c0.304-0.444,0.71-0.813,1.214-1.106c0.505-0.292,1.078-0.515,1.72-0.667c0.641-0.151,1.31-0.227,2.003-0.227
		c0.799,0,1.55,0.064,2.255,0.194c0.705,0.13,1.314,0.369,1.83,0.715c0.515,0.347,0.925,0.819,1.23,1.415
		c0.304,0.597,0.458,1.349,0.458,2.26v8.063c0,0.413,0.058,0.775,0.173,1.089c0.115,0.315,0.405,0.472,0.868,0.472
		c0.273,0,0.5-0.054,0.678-0.163c0.178-0.108,0.352-0.26,0.521-0.456l0.284,0.293C101.657,22.933,101.23,23.204,100.673,23.291z
		 M95.516,14.935c-0.042,0.13-0.122,0.255-0.236,0.373c-0.117,0.12-0.322,0.256-0.616,0.407c-0.4,0.195-0.799,0.385-1.199,0.569
		c-0.4,0.185-0.756,0.417-1.072,0.699c-0.316,0.282-0.573,0.629-0.773,1.041c-0.2,0.412-0.3,0.943-0.3,1.593
		c0,0.26,0.016,0.564,0.047,0.911c0.032,0.347,0.116,0.683,0.253,1.008c0.136,0.325,0.341,0.602,0.615,0.829
		c0.273,0.228,0.651,0.341,1.136,0.341c0.272,0,0.541-0.065,0.804-0.195c0.263-0.13,0.5-0.33,0.709-0.602
		c0.21-0.271,0.379-0.628,0.505-1.073c0.126-0.444,0.189-0.981,0.189-1.609v-4.292H95.516z"/>
	<path fill="#231F20" stroke="#231F20" stroke-width="0.75" d="M109.366,9.049v2.309h0.063c0.126-0.217,0.294-0.472,0.505-0.764
		c0.21-0.293,0.489-0.575,0.836-0.846c0.347-0.27,0.767-0.504,1.262-0.699c0.493-0.195,1.088-0.292,1.783-0.292
		c0.736,0,1.351,0.081,1.845,0.244c0.494,0.163,0.904,0.37,1.23,0.618c0.326,0.25,0.588,0.525,0.789,0.829s0.383,0.607,0.552,0.911
		c0.315-0.586,0.667-1.046,1.057-1.382c0.389-0.336,0.784-0.597,1.183-0.781c0.399-0.185,0.778-0.304,1.137-0.358
		c0.357-0.054,0.651-0.081,0.883-0.081c1.199,0,2.124,0.185,2.776,0.553c0.652,0.369,1.125,0.808,1.42,1.317
		c0.294,0.509,0.468,1.045,0.521,1.609c0.052,0.564,0.079,1.041,0.079,1.432v8.875h2.083v0.456h-7.793v-0.456h1.861V12.464
		c0-0.91-0.163-1.61-0.489-2.098c-0.326-0.488-0.868-0.731-1.625-0.731c-0.231,0-0.515,0.065-0.852,0.195
		c-0.336,0.13-0.663,0.325-0.978,0.585c-0.315,0.26-0.583,0.602-0.805,1.024c-0.221,0.422-0.331,0.927-0.331,1.512v9.591h1.862
		v0.456h-7.604v-0.456h1.893V12.204c0-0.954-0.2-1.62-0.599-2c-0.4-0.378-0.841-0.568-1.325-0.568c-0.842,0-1.578,0.379-2.208,1.138
		c-0.169,0.217-0.315,0.439-0.442,0.667c-0.126,0.228-0.227,0.488-0.299,0.781c-0.075,0.292-0.126,0.628-0.158,1.008
		s-0.048,0.84-0.048,1.381v7.934h1.862v0.456h-7.793v-0.456h2.082V9.504h-2.082V9.049H109.366z"/>
	<path fill="#231F20" stroke="#231F20" stroke-width="0.75" d="M137.256,9.049v2.309h0.062c0.126-0.217,0.295-0.472,0.505-0.764
		c0.21-0.293,0.489-0.575,0.836-0.846c0.347-0.271,0.768-0.504,1.262-0.699s1.089-0.292,1.783-0.292
		c0.736,0,1.351,0.081,1.845,0.244s0.904,0.37,1.231,0.618c0.325,0.25,0.588,0.525,0.788,0.829c0.2,0.304,0.384,0.607,0.552,0.911
		c0.315-0.586,0.667-1.046,1.057-1.382c0.389-0.336,0.784-0.596,1.183-0.78c0.399-0.185,0.778-0.304,1.136-0.358
		c0.357-0.054,0.651-0.081,0.883-0.081c1.2,0,2.125,0.185,2.777,0.553c0.651,0.369,1.125,0.808,1.419,1.317
		c0.294,0.509,0.468,1.045,0.521,1.609c0.052,0.564,0.078,1.041,0.078,1.431v8.876h2.083v0.456h-7.792v-0.456h1.861V12.464
		c0-0.911-0.163-1.61-0.489-2.098c-0.327-0.488-0.868-0.731-1.625-0.731c-0.231,0-0.515,0.065-0.852,0.195s-0.662,0.325-0.978,0.585
		c-0.315,0.26-0.584,0.602-0.804,1.024c-0.221,0.422-0.332,0.927-0.332,1.512v9.591h1.862v0.456h-7.604v-0.456h1.894V12.204
		c0-0.954-0.201-1.62-0.6-2c-0.4-0.378-0.841-0.568-1.325-0.568c-0.842,0-1.578,0.379-2.208,1.137
		c-0.169,0.218-0.315,0.439-0.443,0.667c-0.125,0.228-0.225,0.488-0.299,0.781c-0.074,0.292-0.126,0.628-0.158,1.008
		c-0.031,0.379-0.048,0.84-0.048,1.381v7.934h1.862v0.456h-7.793v-0.456h2.083V9.504h-2.083V9.049H137.256z"/>
	<path fill="#231F20" stroke="#231F20" stroke-width="0.75" d="M169.768,9.196c0.935,0.401,1.751,0.937,2.445,1.609
		c0.694,0.673,1.235,1.458,1.625,2.357c0.389,0.9,0.584,1.848,0.584,2.845c0,1.02-0.195,1.978-0.584,2.878
		c-0.389,0.899-0.931,1.685-1.625,2.357c-0.694,0.672-1.51,1.203-2.445,1.593c-0.937,0.39-1.951,0.585-3.044,0.585
		c-1.094,0-2.109-0.195-3.044-0.585c-0.937-0.39-1.752-0.921-2.446-1.593c-0.693-0.672-1.236-1.458-1.624-2.357
		c-0.39-0.9-0.584-1.858-0.584-2.878c0-0.997,0.194-1.945,0.584-2.845c0.388-0.899,0.931-1.685,1.624-2.357
		c0.694-0.672,1.509-1.208,2.446-1.609c0.935-0.401,1.95-0.601,3.044-0.601C167.817,8.595,168.832,8.795,169.768,9.196z
		 M168.648,22.396c0.462-0.401,0.804-0.927,1.025-1.577c0.221-0.65,0.357-1.398,0.41-2.243c0.052-0.845,0.079-1.702,0.079-2.569
		c0-0.867-0.026-1.717-0.079-2.553c-0.053-0.834-0.189-1.576-0.41-2.227c-0.221-0.65-0.563-1.175-1.025-1.577
		c-0.463-0.401-1.104-0.602-1.925-0.602c-0.821,0-1.462,0.201-1.926,0.602c-0.462,0.401-0.804,0.927-1.025,1.577
		c-0.22,0.651-0.357,1.393-0.41,2.227c-0.053,0.835-0.079,1.686-0.079,2.553c0,0.867,0.026,1.724,0.079,2.569
		c0.052,0.845,0.189,1.593,0.41,2.243c0.221,0.65,0.563,1.176,1.025,1.577c0.464,0.401,1.105,0.602,1.926,0.602
		C167.544,22.998,168.186,22.798,168.648,22.396z"/>
	<path fill="#231F20" stroke="#231F20" stroke-width="0.75" d="M179.485,5.18c0.326,0.087,0.647,0.13,0.963,0.13
		c0.315,0,0.635-0.043,0.962-0.13c0.325-0.086,0.646-0.195,0.962-0.325v4.194h3.691v0.455h-3.691v10.892
		c0,0.326,0.021,0.629,0.062,0.911c0.042,0.282,0.121,0.537,0.237,0.764c0.115,0.228,0.284,0.407,0.505,0.537
		c0.221,0.13,0.51,0.194,0.868,0.194c0.399,0,0.741-0.086,1.025-0.26c0.284-0.173,0.531-0.395,0.742-0.666
		c0.21-0.271,0.383-0.58,0.521-0.927c0.136-0.347,0.247-0.682,0.331-1.008l0.473,0.097c-0.126,0.738-0.342,1.329-0.647,1.773
		c-0.305,0.444-0.652,0.785-1.041,1.024s-0.805,0.396-1.246,0.471c-0.441,0.076-0.863,0.114-1.262,0.114
		c-1.094,0-1.94-0.131-2.54-0.391c-0.6-0.26-1.041-0.585-1.325-0.975c-0.284-0.39-0.448-0.813-0.489-1.268
		c-0.043-0.455-0.063-0.878-0.063-1.269V9.504h-2.114V9.049h2.114V4.855C178.839,4.985,179.159,5.094,179.485,5.18z"/>
	<path fill="#231F20" stroke="#231F20" stroke-width="0.75" d="M190.102,22.542V0.01h-2.083v-0.455h5.931V12.17h0.064
		c0.083-0.195,0.225-0.482,0.425-0.862c0.2-0.379,0.499-0.758,0.899-1.137c0.399-0.379,0.91-0.709,1.53-0.993
		c0.621-0.281,1.404-0.422,2.351-0.422c1.388,0,2.465,0.412,3.234,1.236c0.768,0.824,1.151,1.951,1.151,3.381v9.169h2.114v0.456
		H197.8v-0.456h1.956V12.268c0-0.91-0.179-1.577-0.536-2c-0.358-0.423-0.842-0.634-1.451-0.634c-0.505,0-0.989,0.125-1.452,0.374
		c-0.463,0.25-0.868,0.624-1.215,1.122c-0.347,0.5-0.626,1.117-0.836,1.854c-0.21,0.737-0.316,1.604-0.316,2.602v6.958h1.987v0.456
		h-7.918v-0.456H190.102z"/>
	<path fill="#231F20" stroke="#231F20" stroke-width="0.75" d="M216.162,9.504V9.049h5.868v2.406h0.062
		c0.653-1.907,1.894-2.861,3.724-2.861c1.219,0,2.261,0.244,3.124,0.73c0.862,0.488,1.572,1.102,2.128,1.837
		c0.557,0.737,0.968,1.54,1.231,2.406c0.263,0.868,0.394,1.68,0.394,2.438c0,0.976-0.166,1.908-0.505,2.796
		c-0.335,0.889-0.803,1.674-1.402,2.357c-0.6,0.683-1.321,1.23-2.163,1.642c-0.84,0.412-1.777,0.618-2.807,0.618
		c-0.968,0-1.747-0.271-2.334-0.812c-0.589-0.542-1.031-1.193-1.326-1.951h-0.064v10.957h2.147v0.455h-8.078v-0.455h2.083V9.504
		H216.162z M222.172,18.268c0.051,0.812,0.205,1.571,0.458,2.275c0.253,0.705,0.624,1.29,1.12,1.756
		c0.494,0.466,1.182,0.699,2.066,0.699c0.59,0,1.056-0.163,1.403-0.488c0.348-0.325,0.61-0.791,0.79-1.398
		c0.178-0.606,0.293-1.337,0.346-2.194c0.052-0.856,0.079-1.815,0.079-2.878c0-1.3-0.047-2.4-0.142-3.3
		c-0.095-0.899-0.258-1.62-0.489-2.162c-0.232-0.542-0.525-0.932-0.883-1.17c-0.358-0.238-0.811-0.358-1.357-0.358
		c-0.779,0-1.399,0.228-1.862,0.683c-0.462,0.456-0.809,1.03-1.041,1.724c-0.231,0.694-0.383,1.453-0.458,2.276
		c-0.072,0.824-0.111,1.593-0.111,2.308C222.092,16.712,222.12,17.454,222.172,18.268z"/>
	<path fill="#231F20" stroke="#231F20" stroke-width="0.75" d="M240.866,9.049v2.731h0.062c0.379-0.824,0.891-1.533,1.531-2.129
		c0.641-0.596,1.488-0.894,2.539-0.894c0.883,0,1.599,0.243,2.146,0.731c0.548,0.488,0.82,1.166,0.82,2.033
		c0,0.649-0.151,1.16-0.457,1.528c-0.305,0.369-0.794,0.553-1.467,0.553c-0.485,0-0.927-0.103-1.326-0.309
		c-0.398-0.206-0.599-0.59-0.599-1.155c0-0.064,0.011-0.179,0.032-0.341c0.02-0.163,0.047-0.336,0.078-0.52
		c0.032-0.184,0.058-0.352,0.079-0.505c0.02-0.15,0.031-0.237,0.031-0.259c-0.021-0.173-0.053-0.31-0.095-0.407
		c-0.041-0.097-0.111-0.183-0.204-0.26c-0.096-0.076-0.236-0.114-0.428-0.114c-0.209,0-0.472,0.104-0.787,0.309
		c-0.317,0.207-0.611,0.504-0.883,0.894c-0.273,0.391-0.512,0.862-0.711,1.415c-0.201,0.552-0.301,1.176-0.301,1.87v8.323h2.493
		v0.456h-8.394v-0.456h2.053V9.504h-2.053V9.049H240.866z"/>
	<path fill="#231F20" stroke="#231F20" stroke-width="0.75" d="M252.948,16.3c0,0.78,0.032,1.566,0.094,2.356
		c0.064,0.792,0.231,1.507,0.507,2.146c0.271,0.641,0.673,1.166,1.198,1.578c0.526,0.412,1.262,0.618,2.209,0.618
		c0.841,0,1.551-0.163,2.13-0.488c0.577-0.325,1.051-0.698,1.419-1.121c0.367-0.424,0.642-0.84,0.82-1.253
		c0.179-0.411,0.279-0.715,0.301-0.91l0.439,0.163c-0.104,0.412-0.282,0.851-0.535,1.316c-0.253,0.466-0.601,0.9-1.04,1.301
		c-0.443,0.402-0.99,0.737-1.642,1.008c-0.652,0.271-1.441,0.406-2.366,0.406c-1.095,0-2.113-0.167-3.061-0.504
		c-0.945-0.336-1.772-0.824-2.479-1.463c-0.703-0.638-1.256-1.419-1.655-2.341s-0.599-1.967-0.599-3.137
		c0-0.932,0.189-1.842,0.568-2.731c0.378-0.889,0.898-1.675,1.562-2.357c0.663-0.684,1.44-1.236,2.334-1.658
		c0.894-0.423,1.856-0.634,2.886-0.634c0.737,0,1.474,0.118,2.21,0.357c0.737,0.239,1.398,0.607,1.988,1.105
		c0.588,0.499,1.071,1.143,1.451,1.934c0.377,0.792,0.567,1.74,0.567,2.846h-9.308V16.3z M257.996,12.203
		c0-0.238-0.011-0.531-0.03-0.878c-0.022-0.346-0.095-0.693-0.222-1.041c-0.126-0.347-0.331-0.639-0.615-0.877
		c-0.283-0.238-0.679-0.358-1.182-0.358c-0.717,0-1.27,0.174-1.658,0.521c-0.39,0.346-0.678,0.786-0.867,1.317
		c-0.188,0.531-0.31,1.104-0.363,1.723c-0.053,0.618-0.09,1.208-0.11,1.772h5.048V12.203z"/>
	<path fill="#231F20" stroke="#231F20" stroke-width="0.75" d="M265.031,18.283c0.254,0.607,0.511,1.192,0.774,1.755
		c0.263,0.564,0.573,1.063,0.931,1.497c0.357,0.433,0.788,0.786,1.293,1.057c0.505,0.271,1.125,0.406,1.862,0.406
		c0.188,0,0.44-0.011,0.757-0.032s0.627-0.114,0.93-0.277c0.307-0.163,0.57-0.411,0.789-0.747c0.222-0.336,0.332-0.818,0.332-1.447
		c0-0.195-0.026-0.395-0.079-0.602c-0.053-0.206-0.164-0.417-0.331-0.633c-0.169-0.217-0.417-0.428-0.742-0.634
		c-0.327-0.206-0.772-0.417-1.342-0.634l-2.554-0.975c-0.296-0.108-0.611-0.255-0.946-0.439c-0.337-0.184-0.648-0.428-0.932-0.731
		c-0.283-0.303-0.521-0.667-0.711-1.089c-0.188-0.422-0.282-0.927-0.282-1.512c0-0.629,0.127-1.225,0.377-1.789
		c0.253-0.563,0.605-1.057,1.059-1.479c0.451-0.423,0.998-0.759,1.642-1.008c0.639-0.25,1.339-0.374,2.097-0.374
		c0.399,0,0.773,0.043,1.119,0.129c0.347,0.087,0.664,0.179,0.948,0.276c0.283,0.098,0.534,0.19,0.756,0.277
		c0.222,0.086,0.395,0.13,0.521,0.13c0.232,0,0.379-0.044,0.443-0.13c0.062-0.086,0.114-0.185,0.156-0.293h0.442v3.967h-0.411
		c-0.211-0.521-0.426-1.019-0.646-1.496c-0.222-0.477-0.484-0.895-0.788-1.252c-0.307-0.357-0.68-0.638-1.121-0.845
		c-0.442-0.206-0.989-0.309-1.641-0.309c-0.693,0-1.33,0.19-1.909,0.569c-0.578,0.379-0.868,0.938-0.868,1.674
		c0,0.152,0.021,0.325,0.063,0.52c0.042,0.195,0.138,0.396,0.284,0.602c0.146,0.206,0.379,0.412,0.694,0.618
		c0.315,0.207,0.736,0.407,1.262,0.602l2.682,0.942c1.136,0.413,1.998,0.955,2.587,1.626c0.59,0.672,0.884,1.528,0.884,2.569
		c0,0.714-0.152,1.36-0.458,1.934c-0.305,0.575-0.706,1.062-1.198,1.463c-0.494,0.402-1.067,0.71-1.72,0.927
		c-0.651,0.217-1.326,0.325-2.018,0.325c-0.381,0-0.792-0.043-1.231-0.13c-0.441-0.086-0.868-0.19-1.278-0.308
		c-0.411-0.12-0.784-0.223-1.12-0.31s-0.599-0.13-0.788-0.13c-0.169,0-0.29,0.033-0.363,0.098c-0.073,0.065-0.144,0.185-0.206,0.358
		h-0.44v-4.715H265.031z"/>
	<path fill="#231F20" stroke="#231F20" stroke-width="0.75" d="M278.315,18.283c0.251,0.607,0.509,1.192,0.771,1.755
		c0.263,0.564,0.574,1.063,0.933,1.497c0.355,0.433,0.787,0.786,1.293,1.057c0.504,0.271,1.125,0.406,1.861,0.406
		c0.189,0,0.441-0.011,0.757-0.032c0.316-0.021,0.626-0.114,0.93-0.277c0.306-0.163,0.568-0.411,0.79-0.747
		c0.22-0.336,0.331-0.818,0.331-1.447c0-0.195-0.026-0.395-0.079-0.602c-0.053-0.206-0.163-0.417-0.33-0.633
		c-0.169-0.217-0.417-0.428-0.744-0.634c-0.325-0.206-0.772-0.417-1.34-0.634l-2.555-0.975c-0.296-0.108-0.61-0.255-0.945-0.439
		c-0.337-0.184-0.648-0.428-0.933-0.731c-0.283-0.303-0.521-0.667-0.709-1.089s-0.284-0.927-0.284-1.512
		c0-0.629,0.126-1.225,0.379-1.789c0.251-0.563,0.604-1.057,1.058-1.479c0.45-0.423,0.997-0.759,1.64-1.008
		c0.643-0.25,1.341-0.374,2.097-0.374c0.4,0,0.774,0.043,1.122,0.129c0.346,0.087,0.661,0.179,0.945,0.276
		c0.284,0.098,0.536,0.19,0.757,0.277c0.223,0.086,0.395,0.13,0.521,0.13c0.232,0,0.379-0.044,0.442-0.13
		c0.062-0.086,0.117-0.185,0.157-0.293h0.443v3.967h-0.411c-0.209-0.521-0.426-1.019-0.646-1.496
		c-0.222-0.477-0.483-0.895-0.788-1.252c-0.307-0.357-0.68-0.638-1.121-0.845c-0.442-0.206-0.988-0.309-1.641-0.309
		c-0.693,0-1.33,0.19-1.909,0.569c-0.578,0.379-0.868,0.938-0.868,1.674c0,0.152,0.021,0.325,0.064,0.52
		c0.041,0.195,0.137,0.396,0.283,0.602c0.146,0.206,0.379,0.412,0.695,0.618c0.314,0.207,0.735,0.407,1.262,0.602l2.682,0.942
		c1.136,0.413,1.996,0.955,2.586,1.626c0.59,0.672,0.885,1.528,0.885,2.569c0,0.714-0.153,1.36-0.459,1.934
		c-0.304,0.575-0.705,1.062-1.198,1.463c-0.494,0.402-1.067,0.71-1.72,0.927c-0.651,0.217-1.325,0.325-2.019,0.325
		c-0.38,0-0.788-0.043-1.23-0.13c-0.442-0.086-0.868-0.19-1.278-0.308c-0.409-0.12-0.782-0.223-1.12-0.31
		c-0.337-0.086-0.6-0.13-0.787-0.13c-0.17,0-0.29,0.033-0.364,0.098c-0.074,0.065-0.141,0.185-0.204,0.358h-0.442v-4.715H278.315z"
		/>
</g>
</svg>
