<?xml version="1.0" encoding="utf-8"?>
<!-- Generator: Adobe Illustrator 15.0.0, SVG Export Plug-In . SVG Version: 6.00 Build 0)  -->
<!DOCTYPE svg PUBLIC "-//W3C//DTD SVG 1.1//EN" "http://www.w3.org/Graphics/SVG/1.1/DTD/svg11.dtd">
<svg version="1.1" id="Layer_1" xmlns="http://www.w3.org/2000/svg" xmlns:xlink="http://www.w3.org/1999/xlink" x="0px" y="0px"
	 width="460.5px" height="94px" viewBox="0 0 460.5 94" enable-background="new 0 0 460.5 94" xml:space="preserve">
<g>
	<path fill="#FAFAFA" stroke="#FAFAFA" stroke-width="0.5" d="M46.156,46.913v3.125h0.085c0.171-0.293,0.398-0.638,0.684-1.034
		c0.284-0.396,0.662-0.777,1.132-1.145c0.47-0.367,1.04-0.685,1.708-0.946c0.669-0.264,1.474-0.396,2.414-0.396
		c0.996,0,1.829,0.109,2.499,0.33c0.668,0.22,1.224,0.499,1.666,0.836c0.441,0.338,0.797,0.711,1.068,1.123
		c0.271,0.41,0.519,0.82,0.747,1.231c0.428-0.793,0.904-1.416,1.431-1.872c0.527-0.454,1.061-0.807,1.602-1.056
		s1.053-0.411,1.538-0.485c0.484-0.073,0.883-0.109,1.196-0.109c1.623,0,2.876,0.25,3.759,0.748c0.882,0.5,1.523,1.093,1.921,1.783
		c0.399,0.688,0.633,1.416,0.705,2.18s0.107,1.407,0.107,1.937V65.18h2.818v0.616h-10.55V65.18h2.521V51.534
		c0-1.232-0.222-2.179-0.663-2.839c-0.442-0.66-1.174-0.991-2.199-0.991c-0.314,0-0.698,0.088-1.153,0.264
		c-0.456,0.177-0.896,0.44-1.324,0.792c-0.427,0.354-0.79,0.815-1.089,1.387c-0.299,0.572-0.449,1.254-0.449,2.047V65.18h2.52v0.616
		H50.556V65.18h2.562V51.182c0-1.291-0.271-2.192-0.811-2.707c-0.542-0.513-1.14-0.771-1.794-0.771c-1.14,0-2.135,0.514-2.99,1.541
		c-0.229,0.294-0.427,0.595-0.598,0.903c-0.171,0.308-0.307,0.66-0.406,1.057c-0.1,0.396-0.17,0.852-0.214,1.365
		c-0.042,0.513-0.064,1.137-0.064,1.871v10.74h2.521v0.614h-10.55V65.18h2.819V47.527h-2.819v-0.614H46.156z"/>
	<path fill="#FAFAFA" stroke="#FAFAFA" stroke-width="0.5" d="M94.102,66.191c-0.757,0.117-1.461,0.177-2.116,0.177
		c-1.452,0-2.527-0.265-3.225-0.792c-0.698-0.528-1.132-1.262-1.302-2.201h-0.086c-0.456,1.174-1.082,1.966-1.879,2.377
		c-0.798,0.41-1.951,0.616-3.46,0.616c-0.684,0-1.381-0.073-2.093-0.222c-0.712-0.146-1.367-0.381-1.965-0.703
		s-1.083-0.771-1.453-1.342c-0.37-0.572-0.555-1.271-0.555-2.093c0-0.852,0.164-1.562,0.491-2.135s0.754-1.06,1.282-1.453
		c0.526-0.396,1.125-0.719,1.794-0.969c0.668-0.249,1.359-0.49,2.072-0.728c1.167-0.352,2.114-0.651,2.84-0.901
		c0.727-0.249,1.289-0.513,1.688-0.792c0.398-0.277,0.676-0.596,0.833-0.946c0.156-0.354,0.235-0.808,0.235-1.364v-2.686
		c0-0.793-0.185-1.512-0.556-2.158c-0.37-0.644-1.068-0.967-2.092-0.967c-0.656,0-1.225,0.153-1.709,0.462
		c-0.484,0.308-0.727,0.873-0.727,1.692c0,0.088,0.014,0.242,0.043,0.463c0.028,0.222,0.057,0.463,0.085,0.728
		c0.028,0.267,0.057,0.515,0.086,0.749c0.028,0.235,0.042,0.396,0.042,0.484c0,0.439-0.1,0.783-0.299,1.033
		c-0.199,0.25-0.434,0.435-0.705,0.551c-0.271,0.115-0.555,0.184-0.854,0.197c-0.299,0.016-0.548,0.022-0.747,0.022
		c-0.285,0-0.577-0.022-0.875-0.065c-0.299-0.045-0.562-0.146-0.79-0.309c-0.229-0.161-0.421-0.389-0.577-0.682
		c-0.157-0.293-0.235-0.69-0.235-1.189c0-0.764,0.207-1.445,0.62-2.046s0.961-1.103,1.644-1.497
		c0.684-0.396,1.459-0.697,2.328-0.903c0.868-0.204,1.772-0.307,2.712-0.307c1.082,0,2.099,0.088,3.054,0.264
		c0.954,0.176,1.779,0.499,2.477,0.967c0.697,0.47,1.252,1.106,1.666,1.914c0.413,0.809,0.62,1.828,0.62,3.061v10.917
		c0,0.558,0.079,1.05,0.235,1.476c0.157,0.426,0.548,0.64,1.174,0.64c0.37,0,0.676-0.073,0.918-0.222
		c0.241-0.146,0.476-0.353,0.705-0.615l0.384,0.396C95.433,65.707,94.854,66.074,94.102,66.191z M87.117,54.879
		c-0.058,0.178-0.164,0.346-0.32,0.507c-0.157,0.161-0.435,0.345-0.833,0.552c-0.541,0.265-1.083,0.521-1.623,0.771
		c-0.542,0.25-1.025,0.563-1.452,0.946c-0.427,0.383-0.776,0.852-1.046,1.406c-0.271,0.561-0.406,1.277-0.406,2.158
		c0,0.352,0.021,0.764,0.064,1.231c0.042,0.47,0.156,0.925,0.342,1.364c0.185,0.439,0.462,0.812,0.833,1.123
		c0.369,0.309,0.882,0.463,1.537,0.463c0.37,0,0.733-0.09,1.09-0.267c0.355-0.176,0.676-0.446,0.96-0.813
		c0.285-0.365,0.513-0.853,0.683-1.452c0.171-0.601,0.257-1.327,0.257-2.179v-5.812L87.117,54.879L87.117,54.879z"/>
	<path fill="#FAFAFA" stroke="#FAFAFA" stroke-width="0.5" d="M105.869,46.913v3.125h0.084c0.171-0.293,0.399-0.638,0.684-1.034
		c0.284-0.396,0.662-0.777,1.132-1.145c0.47-0.368,1.039-0.685,1.708-0.946c0.669-0.264,1.474-0.396,2.414-0.396
		c0.996,0,1.829,0.109,2.499,0.33c0.668,0.22,1.223,0.499,1.666,0.836c0.44,0.338,0.797,0.711,1.068,1.123
		c0.27,0.41,0.519,0.82,0.747,1.231c0.427-0.793,0.903-1.416,1.431-1.872c0.526-0.454,1.06-0.807,1.602-1.056
		c0.54-0.249,1.054-0.411,1.537-0.485c0.484-0.073,0.883-0.109,1.196-0.109c1.624,0,2.876,0.25,3.759,0.748
		c0.883,0.5,1.523,1.093,1.922,1.783s0.634,1.416,0.705,2.18c0.07,0.764,0.106,1.407,0.106,1.937V65.18h2.819v0.616h-10.549V65.18
		h2.52V51.534c0-1.232-0.221-2.179-0.663-2.839c-0.441-0.66-1.174-0.991-2.199-0.991c-0.314,0-0.698,0.088-1.153,0.264
		c-0.456,0.177-0.897,0.44-1.325,0.792c-0.426,0.354-0.79,0.815-1.088,1.387c-0.298,0.572-0.449,1.254-0.449,2.047V65.18h2.52v0.616
		h-10.293V65.18h2.563V51.182c0-1.291-0.271-2.192-0.812-2.707c-0.541-0.513-1.139-0.771-1.794-0.771
		c-1.139,0-2.135,0.514-2.989,1.541c-0.229,0.294-0.428,0.595-0.598,0.903c-0.171,0.308-0.307,0.66-0.407,1.057
		s-0.17,0.852-0.213,1.365c-0.042,0.513-0.064,1.137-0.064,1.871v10.74h2.521v0.614h-10.55V65.18h2.819V47.527h-2.819v-0.614
		H105.869z"/>
	<path fill="#FAFAFA" stroke="#FAFAFA" stroke-width="0.5" d="M143.626,46.913v3.125h0.085c0.171-0.293,0.399-0.638,0.684-1.034
		c0.284-0.396,0.662-0.777,1.132-1.145c0.47-0.367,1.038-0.685,1.708-0.946c0.668-0.264,1.473-0.396,2.414-0.396
		c0.996,0,1.829,0.109,2.499,0.33c0.669,0.22,1.223,0.499,1.666,0.836c0.44,0.338,0.797,0.711,1.068,1.123
		c0.27,0.41,0.519,0.82,0.747,1.231c0.427-0.793,0.903-1.416,1.431-1.872c0.526-0.454,1.06-0.807,1.602-1.056
		c0.541-0.249,1.054-0.411,1.538-0.485c0.483-0.073,0.883-0.109,1.196-0.109c1.624,0,2.876,0.25,3.759,0.748
		c0.883,0.5,1.523,1.093,1.922,1.783c0.399,0.688,0.634,1.416,0.705,2.18c0.071,0.764,0.106,1.407,0.106,1.937V65.18h2.82v0.616
		h-10.55V65.18h2.521V51.534c0-1.232-0.221-2.179-0.662-2.839s-1.174-0.991-2.2-0.991c-0.314,0-0.698,0.088-1.154,0.264
		c-0.456,0.177-0.897,0.44-1.324,0.792c-0.427,0.354-0.789,0.815-1.088,1.387c-0.299,0.572-0.449,1.254-0.449,2.047V65.18h2.521
		v0.616H148.03V65.18h2.563V51.182c0-1.291-0.271-2.192-0.812-2.707c-0.54-0.513-1.138-0.771-1.794-0.771
		c-1.138,0-2.136,0.514-2.989,1.541c-0.228,0.294-0.427,0.595-0.598,0.903c-0.17,0.308-0.306,0.66-0.406,1.057
		c-0.1,0.396-0.171,0.852-0.213,1.365c-0.042,0.513-0.064,1.137-0.064,1.871v10.74h2.521v0.614h-10.55V65.18h2.819V47.527h-2.819
		v-0.614H143.626z"/>
	<path fill="#FAFAFA" stroke="#FAFAFA" stroke-width="0.5" d="M187.641,47.11c1.267,0.542,2.371,1.269,3.31,2.179
		c0.94,0.91,1.673,1.973,2.2,3.191c0.526,1.219,0.791,2.502,0.791,3.852c0,1.379-0.264,2.678-0.791,3.896
		c-0.527,1.217-1.26,2.28-2.2,3.189c-0.939,0.909-2.043,1.629-3.31,2.157c-1.268,0.526-2.642,0.792-4.122,0.792
		c-1.481,0-2.855-0.266-4.122-0.792c-1.267-0.528-2.37-1.248-3.311-2.157c-0.939-0.909-1.672-1.975-2.199-3.189
		c-0.528-1.22-0.79-2.519-0.79-3.896c0-1.35,0.262-2.633,0.79-3.852c0.527-1.22,1.26-2.281,2.199-3.191
		c0.94-0.91,2.043-1.637,3.311-2.179c1.267-0.542,2.641-0.814,4.122-0.814C184.999,46.296,186.373,46.568,187.641,47.11z
		 M186.124,64.98c0.626-0.541,1.09-1.254,1.389-2.135c0.299-0.881,0.484-1.894,0.555-3.037c0.071-1.146,0.108-2.305,0.108-3.479
		s-0.037-2.326-0.108-3.456c-0.071-1.13-0.255-2.135-0.555-3.017c-0.299-0.881-0.762-1.592-1.389-2.135
		c-0.626-0.542-1.495-0.812-2.605-0.812c-1.111,0-1.979,0.271-2.606,0.812c-0.626,0.543-1.088,1.254-1.388,2.135
		c-0.299,0.882-0.484,1.888-0.556,3.017c-0.072,1.129-0.106,2.282-0.106,3.456s0.035,2.333,0.106,3.479
		c0.071,1.146,0.257,2.156,0.556,3.037c0.299,0.881,0.762,1.594,1.388,2.135c0.626,0.543,1.495,0.813,2.606,0.813
		C184.629,65.796,185.498,65.523,186.124,64.98z"/>
	<path fill="#FAFAFA" stroke="#FAFAFA" stroke-width="0.5" d="M200.796,41.674c0.44,0.117,0.875,0.176,1.303,0.176
		c0.427,0,0.861-0.059,1.302-0.176c0.441-0.117,0.876-0.264,1.303-0.44v5.679h4.998v0.614h-4.998v14.746
		c0,0.439,0.029,0.853,0.086,1.232c0.057,0.385,0.164,0.729,0.32,1.034c0.157,0.31,0.385,0.551,0.684,0.728
		c0.299,0.176,0.69,0.266,1.175,0.266c0.54,0,1.003-0.117,1.388-0.354c0.384-0.234,0.719-0.535,1.003-0.902
		c0.285-0.366,0.52-0.784,0.705-1.254c0.185-0.469,0.334-0.924,0.449-1.363l0.64,0.131c-0.17,0.998-0.463,1.798-0.875,2.398
		c-0.413,0.603-0.883,1.062-1.41,1.388c-0.527,0.321-1.088,0.534-1.687,0.639c-0.598,0.103-1.169,0.153-1.709,0.153
		c-1.481,0-2.627-0.178-3.438-0.529c-0.811-0.351-1.409-0.791-1.794-1.318c-0.384-0.528-0.605-1.102-0.662-1.717
		c-0.058-0.617-0.084-1.188-0.084-1.718v-13.56h-2.862v-0.614h2.862v-5.679C199.92,41.41,200.354,41.557,200.796,41.674z"/>
	<path fill="#FAFAFA" stroke="#FAFAFA" stroke-width="0.5" d="M215.168,65.18V34.675h-2.819v-0.616h8.031v17.08h0.084
		c0.114-0.264,0.306-0.652,0.577-1.166c0.27-0.514,0.675-1.027,1.217-1.541c0.541-0.515,1.232-0.959,2.072-1.344
		c0.841-0.381,1.901-0.572,3.183-0.572c1.879,0,3.338,0.557,4.378,1.673c1.038,1.115,1.56,2.641,1.56,4.578V65.18h2.859v0.616
		h-10.72V65.18h2.649V51.27c0-1.23-0.243-2.134-0.729-2.707c-0.483-0.571-1.14-0.857-1.965-0.857c-0.684,0-1.338,0.17-1.965,0.507
		c-0.626,0.337-1.174,0.845-1.646,1.519c-0.471,0.676-0.848,1.514-1.132,2.511c-0.286,0.997-0.427,2.172-0.427,3.521v9.42h2.69
		v0.616h-10.722V65.18H215.168z"/>
	<path fill="#FAFAFA" stroke="#FAFAFA" stroke-width="0.5" d="M250.451,47.527v-0.614h7.943v3.256h0.084
		c0.884-2.581,2.562-3.873,5.041-3.873c1.648,0,3.06,0.329,4.228,0.99c1.168,0.659,2.129,1.489,2.884,2.487
		c0.754,0.998,1.312,2.084,1.665,3.256c0.357,1.175,0.536,2.275,0.536,3.302c0,1.321-0.229,2.582-0.683,3.786
		c-0.457,1.203-1.092,2.267-1.902,3.189c-0.812,0.926-1.786,1.666-2.926,2.225c-1.142,0.556-2.408,0.836-3.802,0.836
		c-1.311,0-2.363-0.366-3.162-1.102c-0.795-0.732-1.396-1.613-1.792-2.643h-0.087V77.46h2.904v0.617H250.45V77.46h2.815V47.527
		H250.451z M258.585,59.393c0.072,1.102,0.279,2.129,0.62,3.08c0.342,0.954,0.849,1.746,1.516,2.377
		c0.67,0.631,1.604,0.946,2.799,0.946c0.798,0,1.434-0.22,1.901-0.66s0.826-1.071,1.067-1.893c0.239-0.822,0.396-1.812,0.47-2.972
		c0.072-1.16,0.106-2.457,0.106-3.896c0-1.764-0.062-3.25-0.191-4.469c-0.128-1.219-0.352-2.193-0.664-2.928
		c-0.312-0.731-0.71-1.262-1.195-1.583c-0.48-0.323-1.096-0.484-1.835-0.484c-1.056,0-1.895,0.308-2.521,0.924
		c-0.626,0.615-1.098,1.396-1.409,2.332c-0.313,0.938-0.521,1.967-0.62,3.082c-0.1,1.116-0.15,2.158-0.15,3.126
		C258.479,57.285,258.517,58.291,258.585,59.393z"/>
	<path fill="#FAFAFA" stroke="#FAFAFA" stroke-width="0.5" d="M283.895,46.913v3.696h0.084c0.516-1.113,1.202-2.074,2.072-2.883
		c0.867-0.807,2.016-1.209,3.438-1.209c1.193,0,2.163,0.33,2.901,0.99c0.741,0.66,1.11,1.578,1.11,2.751
		c0,0.881-0.207,1.57-0.62,2.069c-0.412,0.5-1.074,0.749-1.984,0.749c-0.653,0-1.253-0.141-1.793-0.417
		c-0.541-0.28-0.812-0.8-0.812-1.563c0-0.088,0.014-0.242,0.042-0.463c0.028-0.22,0.063-0.455,0.108-0.703
		c0.039-0.25,0.074-0.479,0.104-0.684c0.028-0.204,0.042-0.321,0.042-0.352c-0.029-0.234-0.072-0.418-0.129-0.552
		c-0.058-0.131-0.148-0.247-0.276-0.352c-0.129-0.104-0.319-0.153-0.574-0.153c-0.285,0-0.644,0.141-1.067,0.417
		c-0.43,0.28-0.827,0.685-1.196,1.211c-0.373,0.528-0.69,1.166-0.961,1.916c-0.271,0.748-0.407,1.593-0.407,2.529v11.271h3.375
		v0.615h-11.36V65.18h2.775V47.527h-2.775v-0.614H283.895z"/>
	<path fill="#FAFAFA" stroke="#FAFAFA" stroke-width="0.5" d="M308.986,47.11c1.268,0.542,2.369,1.269,3.311,2.179
		c0.939,0.91,1.672,1.973,2.2,3.191c0.524,1.219,0.79,2.502,0.79,3.852c0,1.379-0.266,2.678-0.79,3.896
		c-0.528,1.217-1.261,2.28-2.2,3.189c-0.938,0.909-2.043,1.629-3.311,2.157c-1.27,0.526-2.644,0.792-4.121,0.792
		c-1.48,0-2.855-0.266-4.122-0.792c-1.271-0.528-2.371-1.248-3.312-2.157c-0.938-0.909-1.672-1.975-2.198-3.189
		c-0.527-1.22-0.79-2.519-0.79-3.896c0-1.35,0.263-2.633,0.79-3.852c0.526-1.22,1.261-2.281,2.198-3.191
		c0.939-0.91,2.042-1.637,3.312-2.179c1.267-0.542,2.642-0.814,4.122-0.814C306.345,46.296,307.719,46.568,308.986,47.11z
		 M307.471,64.98c0.626-0.541,1.09-1.254,1.389-2.135c0.301-0.881,0.483-1.894,0.556-3.037c0.072-1.146,0.106-2.305,0.106-3.479
		s-0.034-2.326-0.106-3.456c-0.07-1.129-0.255-2.134-0.556-3.017c-0.299-0.881-0.763-1.592-1.389-2.135
		c-0.626-0.542-1.496-0.812-2.604-0.812c-1.111,0-1.98,0.271-2.606,0.812c-0.627,0.543-1.088,1.254-1.388,2.135
		c-0.298,0.882-0.485,1.888-0.555,3.017c-0.072,1.129-0.106,2.282-0.106,3.456s0.034,2.333,0.106,3.479
		c0.067,1.146,0.257,2.156,0.555,3.037c0.3,0.881,0.761,1.594,1.388,2.135c0.626,0.543,1.495,0.813,2.606,0.813
		C305.975,65.796,306.845,65.523,307.471,64.98z"/>
	<path fill="#FAFAFA" stroke="#FAFAFA" stroke-width="0.5" d="M318.745,47.527v-0.614h8.073v20.731c0,1.523-0.12,2.941-0.363,4.248
		c-0.241,1.307-0.641,2.442-1.196,3.409c-0.554,0.97-1.287,1.726-2.198,2.269c-0.909,0.543-2.033,0.813-3.375,0.813
		c-1.535,0-2.797-0.329-3.778-0.989s-1.476-1.578-1.476-2.75c0-0.939,0.243-1.586,0.729-1.938c0.482-0.353,1.024-0.528,1.624-0.528
		c0.711,0,1.267,0.17,1.666,0.508c0.396,0.336,0.598,0.813,0.598,1.432c0,0.32-0.059,0.695-0.172,1.123
		c-0.113,0.425-0.171,0.799-0.171,1.121c0,0.294,0.058,0.602,0.171,0.925c0.113,0.321,0.514,0.483,1.196,0.483
		c0.514,0,0.896-0.162,1.151-0.483c0.257-0.323,0.386-1.058,0.386-2.2V47.527H318.745z M322.078,35.247
		c0.598-0.615,1.309-0.924,2.136-0.924c0.825,0,1.537,0.309,2.135,0.924c0.601,0.617,0.897,1.351,0.897,2.202
		c0,0.852-0.299,1.584-0.897,2.201c-0.598,0.616-1.31,0.924-2.135,0.924c-0.827,0-1.538-0.308-2.136-0.924
		c-0.598-0.617-0.896-1.349-0.896-2.201C321.182,36.597,321.48,35.864,322.078,35.247z"/>
	<path fill="#FAFAFA" stroke="#FAFAFA" stroke-width="0.5" d="M337.796,56.729c0,1.059,0.043,2.121,0.128,3.19
		c0.087,1.072,0.313,2.042,0.688,2.905c0.367,0.865,0.906,1.576,1.619,2.136c0.714,0.558,1.712,0.836,2.99,0.836
		c1.14,0,2.102-0.22,2.885-0.66c0.782-0.44,1.424-0.946,1.922-1.519c0.497-0.572,0.867-1.139,1.109-1.695
		c0.241-0.557,0.378-0.968,0.406-1.232l0.598,0.222c-0.143,0.56-0.385,1.151-0.727,1.782c-0.341,0.633-0.812,1.219-1.409,1.762
		s-1.339,0.997-2.222,1.363c-0.883,0.367-1.95,0.552-3.203,0.552c-1.48,0-2.861-0.229-4.146-0.683
		c-1.278-0.455-2.396-1.117-3.354-1.981c-0.953-0.865-1.702-1.921-2.241-3.169c-0.541-1.247-0.812-2.662-0.812-4.246
		c0-1.264,0.257-2.495,0.769-3.699c0.513-1.201,1.217-2.267,2.115-3.189c0.896-0.924,1.949-1.674,3.159-2.246
		s2.513-0.858,3.907-0.858c0.995,0,1.993,0.161,2.989,0.484c0.996,0.323,1.896,0.821,2.692,1.495
		c0.796,0.677,1.451,1.549,1.963,2.619c0.514,1.071,0.771,2.354,0.771,3.854h-12.603v1.979H337.796z M344.63,51.182
		c0-0.322-0.015-0.719-0.043-1.188s-0.128-0.938-0.298-1.408c-0.172-0.469-0.448-0.865-0.833-1.188
		c-0.386-0.323-0.918-0.484-1.603-0.484c-0.971,0-1.718,0.235-2.242,0.704c-0.526,0.47-0.918,1.063-1.177,1.782
		c-0.256,0.72-0.419,1.496-0.489,2.332c-0.071,0.836-0.121,1.637-0.149,2.398h6.834V51.182z"/>
	<path fill="#FAFAFA" stroke="#FAFAFA" stroke-width="0.5" d="M353.855,52.943c0.457-1.174,1.133-2.252,2.026-3.236
		c0.897-0.982,1.995-1.797,3.29-2.443c1.296-0.645,2.797-0.967,4.507-0.967c1.082,0,2.063,0.117,2.946,0.352
		s1.646,0.565,2.285,0.992c0.642,0.424,1.139,0.938,1.496,1.539c0.354,0.604,0.533,1.271,0.533,2.002
		c0,0.969-0.242,1.652-0.729,2.049c-0.484,0.396-1.168,0.594-2.051,0.594c-0.654,0-1.259-0.123-1.813-0.374
		c-0.557-0.249-0.833-0.771-0.833-1.562c0-0.115,0.035-0.32,0.106-0.615c0.069-0.293,0.142-0.602,0.213-0.924
		c0.069-0.322,0.142-0.633,0.214-0.926c0.07-0.292,0.106-0.498,0.106-0.615c0-0.586-0.251-1.05-0.746-1.388
		c-0.5-0.337-1.12-0.506-1.859-0.506c-1.022,0-1.836,0.249-2.434,0.749c-0.6,0.499-1.062,1.166-1.392,2.002
		c-0.324,0.836-0.54,1.807-0.64,2.904c-0.1,1.102-0.148,2.269-0.148,3.5c0,1.146,0.041,2.289,0.128,3.436
		c0.087,1.145,0.312,2.188,0.685,3.124c0.369,0.938,0.911,1.702,1.622,2.289c0.713,0.588,1.682,0.881,2.905,0.881
		c1.167,0,2.148-0.212,2.944-0.639c0.798-0.427,1.438-0.925,1.923-1.495c0.484-0.573,0.85-1.146,1.092-1.718
		c0.238-0.572,0.391-0.99,0.445-1.257l0.6,0.222c-0.144,0.526-0.362,1.106-0.661,1.737c-0.3,0.633-0.732,1.221-1.303,1.763
		c-0.569,0.542-1.305,1.006-2.2,1.387c-0.896,0.382-2.028,0.572-3.396,0.572c-0.372,0-0.892-0.038-1.56-0.108
		c-0.669-0.074-1.396-0.236-2.18-0.484c-0.781-0.25-1.573-0.596-2.37-1.035c-0.798-0.438-1.53-1.034-2.2-1.781
		c-0.668-0.748-1.209-1.667-1.621-2.751c-0.414-1.087-0.62-2.378-0.62-3.874C353.173,55.247,353.4,54.117,353.855,52.943z"/>
	<path fill="#FAFAFA" stroke="#FAFAFA" stroke-width="0.5" d="M377.626,41.674c0.438,0.117,0.874,0.176,1.303,0.176
		c0.428,0,0.861-0.059,1.305-0.176c0.44-0.117,0.872-0.264,1.303-0.44v5.679h4.997v0.614h-4.997v14.746
		c0,0.439,0.026,0.853,0.084,1.232c0.057,0.383,0.163,0.729,0.319,1.034c0.154,0.31,0.385,0.551,0.686,0.728
		c0.298,0.176,0.689,0.266,1.175,0.266c0.539,0,1.002-0.117,1.388-0.354c0.386-0.234,0.721-0.535,1.006-0.902
		c0.285-0.366,0.52-0.784,0.705-1.254c0.185-0.469,0.335-0.924,0.445-1.363l0.644,0.131c-0.173,0.998-0.464,1.798-0.876,2.398
		c-0.414,0.603-0.886,1.062-1.409,1.388c-0.528,0.321-1.09,0.534-1.688,0.639c-0.599,0.103-1.168,0.153-1.71,0.153
		c-1.479,0-2.627-0.178-3.438-0.529c-0.812-0.351-1.409-0.791-1.795-1.318c-0.382-0.528-0.604-1.102-0.66-1.717
		c-0.062-0.617-0.085-1.188-0.085-1.719V47.527h-2.861v-0.614h2.861v-5.679C376.749,41.41,377.183,41.557,377.626,41.674z"/>
	<path fill="#FAFAFA" stroke="#FAFAFA" stroke-width="0.5" d="M390.075,59.413c0.342,0.821,0.688,1.614,1.046,2.377
		c0.354,0.765,0.775,1.438,1.262,2.024c0.482,0.586,1.067,1.063,1.75,1.432c0.685,0.367,1.523,0.55,2.521,0.55
		c0.257,0,0.599-0.015,1.022-0.044c0.431-0.029,0.851-0.154,1.263-0.374c0.41-0.221,0.768-0.558,1.066-1.013
		c0.298-0.455,0.448-1.107,0.448-1.958c0-0.267-0.037-0.535-0.106-0.815c-0.07-0.277-0.223-0.564-0.446-0.857
		c-0.229-0.293-0.563-0.577-1.005-0.857c-0.441-0.277-1.048-0.562-1.816-0.855l-3.46-1.321c-0.397-0.146-0.825-0.345-1.28-0.595
		c-0.456-0.248-0.877-0.578-1.259-0.989c-0.385-0.411-0.706-0.902-0.961-1.476c-0.257-0.572-0.385-1.256-0.385-2.048
		c0-0.851,0.17-1.657,0.513-2.421c0.342-0.762,0.816-1.43,1.432-2.003c0.61-0.571,1.353-1.026,2.222-1.364
		c0.865-0.337,1.813-0.505,2.84-0.505c0.542,0,1.046,0.058,1.516,0.176c0.47,0.117,0.898,0.242,1.283,0.374
		c0.382,0.132,0.725,0.257,1.022,0.375c0.3,0.117,0.535,0.176,0.704,0.176c0.313,0,0.516-0.059,0.6-0.176
		c0.085-0.118,0.155-0.25,0.213-0.396h0.599V52.2h-0.555c-0.284-0.705-0.576-1.382-0.876-2.026c-0.298-0.646-0.654-1.21-1.068-1.693
		c-0.413-0.484-0.917-0.865-1.516-1.146c-0.598-0.278-1.339-0.417-2.22-0.417c-0.941,0-1.806,0.257-2.587,0.771
		c-0.782,0.515-1.175,1.271-1.175,2.267c0,0.206,0.028,0.44,0.085,0.705c0.059,0.264,0.187,0.534,0.387,0.813
		c0.198,0.278,0.513,0.559,0.938,0.836c0.431,0.279,0.997,0.551,1.71,0.813l3.63,1.276c1.539,0.559,2.705,1.291,3.503,2.199
		c0.799,0.91,1.195,2.069,1.195,3.479c0,0.969-0.206,1.841-0.619,2.62c-0.414,0.775-0.954,1.438-1.622,1.979
		c-0.67,0.543-1.444,0.963-2.33,1.254c-0.882,0.293-1.793,0.44-2.731,0.44c-0.51,0-1.067-0.06-1.665-0.177
		c-0.601-0.118-1.175-0.258-1.729-0.418c-0.557-0.16-1.062-0.301-1.516-0.418c-0.457-0.117-0.812-0.178-1.067-0.178
		c-0.229,0-0.394,0.045-0.49,0.133c-0.102,0.09-0.193,0.25-0.278,0.483h-0.6v-6.383h0.598v-0.002H390.075z"/>
</g>
</svg>
