<?xml version="1.0" encoding="utf-8"?>
<!-- Generator: Adobe Illustrator 15.0.0, SVG Export Plug-In . SVG Version: 6.00 Build 0)  -->
<!DOCTYPE svg PUBLIC "-//W3C//DTD SVG 1.1//EN" "http://www.w3.org/Graphics/SVG/1.1/DTD/svg11.dtd">
<svg version="1.1" id="Layer_1" xmlns="http://www.w3.org/2000/svg" xmlns:xlink="http://www.w3.org/1999/xlink" x="0px" y="0px"
	 width="460.5px" height="94px" viewBox="0 255.5 460.5 94" enable-background="new 0 255.5 460.5 94" xml:space="preserve">
<g>
	<path fill="#231F20" stroke="#231F20" stroke-width="0.75" d="M52.009,295.755v5.926h0.163c0.327-0.548,0.757-1.21,1.297-1.963
		c0.54-0.753,1.256-1.469,2.149-2.172c0.889-0.698,1.977-1.297,3.247-1.796c1.265-0.503,2.797-0.752,4.575-0.752
		c1.896,0,3.474,0.208,4.743,0.625c1.265,0.417,2.326,0.948,3.165,1.587c0.839,0.648,1.515,1.352,2.032,2.131
		c0.512,0.78,0.984,1.56,1.419,2.339c0.812-1.496,1.714-2.68,2.721-3.55c0.998-0.862,2.013-1.533,3.038-2.004
		c1.024-0.48,2-0.78,2.92-0.92c0.916-0.141,1.673-0.208,2.267-0.208c3.079,0,5.464,0.471,7.132,1.419
		c1.678,0.948,2.893,2.077,3.655,3.387c0.752,1.302,1.197,2.688,1.333,4.136c0.136,1.45,0.208,2.675,0.208,3.677v22.821h5.351v1.17
		H83.391v-1.17h4.788v-25.909c0-2.34-0.422-4.135-1.256-5.391c-0.844-1.251-2.231-1.882-4.176-1.882
		c-0.594,0-1.329,0.168-2.19,0.503c-0.871,0.335-1.705,0.834-2.512,1.505c-0.812,0.667-1.501,1.546-2.067,2.625
		c-0.571,1.088-0.853,2.39-0.853,3.895v24.653h4.779v1.17H60.356v-1.17h4.874v-26.575c0-2.453-0.517-4.167-1.542-5.142
		c-1.029-0.975-2.167-1.465-3.41-1.465c-2.158,0-4.054,0.984-5.677,2.934c-0.436,0.558-0.812,1.119-1.134,1.709
		c-0.322,0.585-0.581,1.256-0.771,2.009s-0.322,1.614-0.403,2.589c-0.086,0.975-0.123,2.168-0.123,3.56v20.382h4.788v1.17H36.928
		v-1.17h5.351v-33.513h-5.351v-1.169H52.009z"/>
	<path fill="#231F20" stroke="#231F20" stroke-width="0.75" d="M143.039,332.359c-1.437,0.223-2.771,0.336-4.013,0.336
		c-2.757,0-4.797-0.503-6.121-1.506c-1.329-1.002-2.149-2.394-2.471-4.18h-0.159c-0.875,2.23-2.059,3.74-3.578,4.521
		c-1.519,0.779-3.7,1.17-6.565,1.17c-1.297,0-2.617-0.141-3.968-0.422s-2.603-0.721-3.736-1.333
		c-1.138-0.621-2.049-1.465-2.761-2.558c-0.698-1.079-1.052-2.407-1.052-3.963c0-1.614,0.304-2.966,0.934-4.054
		c0.621-1.088,1.433-2.004,2.426-2.757c1.002-0.753,2.14-1.364,3.41-1.841c1.265-0.472,2.58-0.93,3.931-1.379
		c2.217-0.666,4.013-1.237,5.391-1.714c1.378-0.472,2.444-0.975,3.201-1.505c0.757-0.521,1.283-1.12,1.587-1.796
		c0.291-0.666,0.445-1.532,0.445-2.589v-5.105c0-1.496-0.354-2.861-1.057-4.095c-0.703-1.224-2.031-1.836-3.972-1.836
		c-1.251,0-2.326,0.285-3.242,0.87c-0.921,0.585-1.378,1.66-1.378,3.22c0,0.167,0.027,0.458,0.086,0.87
		c0.054,0.427,0.104,0.88,0.159,1.388c0.054,0.494,0.104,0.975,0.159,1.419s0.086,0.753,0.086,0.921c0,0.834-0.19,1.482-0.566,1.963
		c-0.381,0.472-0.83,0.821-1.342,1.043c-0.512,0.223-1.057,0.35-1.623,0.377c-0.567,0.026-1.039,0.04-1.419,0.04
		c-0.544,0-1.097-0.04-1.66-0.117c-0.567-0.091-1.065-0.286-1.501-0.585c-0.435-0.309-0.798-0.739-1.093-1.297
		c-0.294-0.558-0.449-1.311-0.449-2.258c0-1.446,0.395-2.743,1.179-3.886c0.78-1.143,1.823-2.09,3.119-2.834
		c1.297-0.752,2.775-1.324,4.426-1.714c1.641-0.39,3.364-0.585,5.142-0.585c2.054,0,3.986,0.163,5.799,0.494
		c1.814,0.335,3.383,0.948,4.707,1.841c1.329,0.884,2.381,2.104,3.165,3.636c0.785,1.528,1.174,3.46,1.174,5.809v20.727
		c0,1.057,0.15,1.99,0.444,2.798c0.299,0.807,1.047,1.21,2.231,1.21c0.703,0,1.288-0.131,1.746-0.417
		c0.458-0.276,0.902-0.666,1.338-1.17l0.73,0.753C145.569,331.439,144.472,332.138,143.039,332.359z M129.781,310.881
		c-0.109,0.336-0.309,0.653-0.608,0.961c-0.304,0.305-0.825,0.653-1.578,1.043c-1.034,0.504-2.059,0.993-3.083,1.465
		c-1.034,0.472-1.95,1.07-2.757,1.796c-0.816,0.726-1.478,1.623-1.991,2.675c-0.512,1.057-0.771,2.417-0.771,4.095
		c0,0.676,0.041,1.451,0.118,2.34c0.082,0.893,0.295,1.755,0.653,2.598c0.349,0.835,0.875,1.546,1.583,2.132
		c0.703,0.584,1.673,0.87,2.92,0.87c0.698,0,1.392-0.168,2.063-0.494c0.68-0.336,1.288-0.857,1.827-1.546
		c0.544-0.699,0.975-1.624,1.297-2.767c0.322-1.138,0.485-2.521,0.485-4.135v-11.032H129.781L129.781,310.881z"/>
	<path fill="#231F20" stroke="#231F20" stroke-width="0.75" d="M165.384,295.755v5.926h0.163c0.322-0.548,0.752-1.21,1.297-1.963
		c0.535-0.753,1.256-1.469,2.149-2.172c0.884-0.698,1.973-1.297,3.238-1.796c1.27-0.503,2.802-0.752,4.584-0.752
		c1.891,0,3.473,0.208,4.743,0.625c1.265,0.417,2.322,0.948,3.165,1.587c0.834,0.648,1.515,1.352,2.027,2.131
		s0.989,1.56,1.424,2.339c0.807-1.496,1.714-2.68,2.716-3.55c1.002-0.862,2.014-1.533,3.042-2.004c1.025-0.48,1.995-0.78,2.92-0.92
		c0.916-0.141,1.668-0.208,2.267-0.208c3.079,0,5.459,0.471,7.132,1.419c1.678,0.948,2.893,2.077,3.65,3.387
		c0.757,1.302,1.207,2.688,1.338,4.136c0.136,1.45,0.204,2.675,0.204,3.677v22.821h5.355v1.17h-20.033v-1.17h4.784v-25.909
		c0-2.34-0.421-4.135-1.256-5.391c-0.848-1.251-2.231-1.882-4.181-1.882c-0.594,0-1.324,0.168-2.186,0.503
		c-0.875,0.335-1.705,0.834-2.517,1.505c-0.816,0.667-1.5,1.546-2.067,2.625c-0.567,1.088-0.848,2.39-0.848,3.895v24.653h4.775v1.17
		h-19.543v-1.17h4.865v-26.575c0-2.453-0.508-4.167-1.537-5.142c-1.029-0.975-2.167-1.465-3.405-1.465
		c-2.163,0-4.053,0.984-5.681,2.934c-0.436,0.558-0.807,1.119-1.129,1.709c-0.327,0.585-0.581,1.256-0.771,2.009
		s-0.327,1.614-0.408,2.589c-0.086,0.975-0.118,2.168-0.118,3.56v20.382h4.784v1.17h-20.033v-1.17h5.355v-33.513h-5.355v-1.169
		H165.384z"/>
	<path fill="#231F20" stroke="#231F20" stroke-width="0.75" d="M237.075,295.755v5.926h0.159c0.322-0.548,0.757-1.21,1.296-1.963
		c0.54-0.753,1.261-1.469,2.149-2.172c0.893-0.703,1.977-1.297,3.242-1.796c1.27-0.503,2.807-0.752,4.58-0.752
		c1.891,0,3.473,0.208,4.743,0.625s2.326,0.948,3.165,1.587c0.843,0.648,1.51,1.352,2.031,2.131c0.512,0.78,0.984,1.56,1.415,2.339
		c0.821-1.496,1.719-2.68,2.725-3.55c0.998-0.862,2.013-1.533,3.034-2.004c1.029-0.48,2.009-0.78,2.92-0.92
		c0.92-0.141,1.678-0.208,2.276-0.208c3.079,0,5.459,0.471,7.132,1.419s2.893,2.077,3.65,3.387c0.757,1.302,1.202,2.688,1.338,4.136
		c0.131,1.45,0.204,2.675,0.204,3.677v22.821h5.346v1.17h-20.028v-1.17h4.788v-25.909c0-2.34-0.421-4.135-1.26-5.391
		c-0.834-1.251-2.227-1.882-4.167-1.882c-0.599,0-1.329,0.168-2.199,0.503c-0.862,0.335-1.701,0.834-2.512,1.505
		c-0.807,0.667-1.492,1.546-2.063,2.625c-0.567,1.088-0.857,2.39-0.857,3.895v24.653h4.788v1.17h-19.547v-1.17h4.87v-26.575
		c0-2.453-0.513-4.167-1.542-5.142c-1.024-0.975-2.158-1.465-3.405-1.465c-2.163,0-4.049,0.984-5.677,2.934
		c-0.431,0.558-0.812,1.119-1.133,1.709c-0.317,0.585-0.585,1.256-0.771,2.009c-0.19,0.753-0.317,1.614-0.403,2.589
		c-0.082,0.975-0.127,2.168-0.127,3.56v20.382h4.788v1.17h-20.028v-1.17h5.346v-33.513h-5.346v-1.169H237.075z"/>
	<path fill="#231F20" stroke="#231F20" stroke-width="0.75" d="M320.646,296.131c2.403,1.029,4.498,2.408,6.285,4.135
		c1.782,1.728,3.178,3.75,4.176,6.058c1.002,2.312,1.501,4.752,1.501,7.313c0,2.621-0.499,5.088-1.501,7.396
		c-1.002,2.312-2.398,4.34-4.176,6.066c-1.787,1.729-3.881,3.093-6.285,4.095c-2.412,1.002-5.015,1.506-7.831,1.506
		c-2.811,0-5.423-0.504-7.826-1.506c-2.412-1.002-4.507-2.366-6.289-4.095c-1.787-1.727-3.179-3.754-4.176-6.066
		c-1.002-2.308-1.496-4.77-1.496-7.396c0-2.562,0.494-5.001,1.496-7.313c1.002-2.309,2.395-4.33,4.176-6.058
		c1.782-1.728,3.877-3.106,6.289-4.135c2.403-1.038,5.015-1.546,7.826-1.546C315.631,294.585,318.238,295.097,320.646,296.131z
		 M317.762,330.061c1.192-1.029,2.068-2.38,2.634-4.053c0.567-1.674,0.916-3.592,1.057-5.768c0.136-2.173,0.204-4.367,0.204-6.603
		c0-2.222-0.068-4.416-0.204-6.561c-0.136-2.146-0.485-4.054-1.057-5.718c-0.566-1.673-1.446-3.024-2.634-4.054
		c-1.188-1.039-2.838-1.546-4.942-1.546c-2.113,0-3.759,0.508-4.947,1.546c-1.192,1.029-2.067,2.38-2.63,4.054
		c-0.571,1.664-0.925,3.577-1.057,5.718c-0.136,2.145-0.208,4.339-0.208,6.561c0,2.231,0.073,4.43,0.208,6.603
		c0.127,2.176,0.481,4.094,1.057,5.768c0.562,1.673,1.446,3.023,2.63,4.053c1.192,1.034,2.834,1.547,4.947,1.547
		C314.924,331.607,316.574,331.095,317.762,330.061z"/>
	<path fill="#231F20" stroke="#231F20" stroke-width="0.75" d="M345.621,285.807c0.838,0.231,1.659,0.335,2.476,0.335
		c0.812,0,1.632-0.109,2.471-0.335c0.839-0.223,1.659-0.494,2.471-0.834v10.783h9.49v1.169h-9.49v27.99
		c0,0.844,0.05,1.624,0.159,2.35c0.104,0.716,0.312,1.378,0.612,1.963c0.295,0.585,0.73,1.043,1.297,1.379
		c0.567,0.335,1.306,0.494,2.227,0.494c1.034,0,1.904-0.223,2.634-0.667s1.365-1.016,1.904-1.714
		c0.544-0.689,0.989-1.492,1.342-2.381c0.345-0.893,0.635-1.754,0.853-2.598l1.215,0.259c-0.322,1.895-0.875,3.409-1.659,4.548
		c-0.785,1.143-1.673,2.026-2.675,2.634s-2.072,1.016-3.206,1.211c-1.129,0.195-2.212,0.295-3.237,0.295
		c-2.811,0-4.988-0.336-6.529-1.012c-1.537-0.666-2.675-1.496-3.405-2.507c-0.726-1.002-1.152-2.082-1.256-3.251
		c-0.109-1.17-0.159-2.259-0.159-3.261v-25.741h-5.437v-1.17h5.437v-10.783C343.961,285.308,344.787,285.584,345.621,285.807z"/>
	<path fill="#231F20" stroke="#231F20" stroke-width="0.75" d="M372.908,330.438v-57.917h-5.351v-1.17h15.244v32.42h0.164
		c0.217-0.494,0.58-1.238,1.093-2.213c0.512-0.975,1.283-1.95,2.312-2.925c1.029-0.975,2.34-1.832,3.936-2.557
		c1.591-0.716,3.604-1.079,6.044-1.079c3.564,0,6.339,1.056,8.311,3.174c1.973,2.118,2.961,5.015,2.961,8.692v23.574h5.433v1.17
		H392.7v-1.17h5.028v-26.408c0-2.344-0.462-4.053-1.378-5.137c-0.925-1.088-2.167-1.633-3.731-1.633
		c-1.301,0-2.544,0.317-3.736,0.957c-1.188,0.648-2.227,1.609-3.12,2.884c-0.889,1.283-1.614,2.87-2.149,4.766
		c-0.544,1.896-0.816,4.121-0.816,6.688v17.884h5.115v1.17h-20.359v-1.17H372.908z"/>
</g>
</svg>
